<?xml version="1.0" encoding="UTF-8"?>
<svg id="ITEC_e_Tutoria" data-name="ITEC e Tutoria" xmlns="http://www.w3.org/2000/svg" viewBox="0 0 2556.6 1672.29">
  <defs>
    <style>
      .cls-1 {
        fill: #006b92;
      }
    </style>
  </defs>
  <g id="ITEC">
    <g id="Circulo">
      <path class="cls-1" d="M2376,654.99c0,31.49-4.41,61.92-12.7,90.74-.54.13-1.34.07-2.34-.07-34.9-7.96-70.34-16.52-104.45-27.48-10.16-3.21-72.02-24.81-82.78-31.9.2-1.74.33-3.48.33-5.28,0-23.87-19.32-43.13-43.13-43.13-4.35,0-8.49.6-12.44,1.81-.87-.33-98.29-201-121.23-309.13,16.38-2.54,33.23-3.88,50.35-3.88,39.52,0,77.43,7.02,112.54,19.79,2.34.8,4.61,1.67,6.95,2.61,2.94,1.14,5.88,2.34,8.76,3.61,18.72,8.02,36.58,17.59,53.36,28.75,2.34,1.61,4.75,3.21,7.09,4.88,1.94,1.34,3.81,2.67,5.68,4.01,1.47,1.07,2.94,2.14,4.35,3.28,1.4,1,2.74,2.01,4.01,3.08,2.07,1.6,4.15,3.28,6.15,4.95,2.47,2.01,4.95,4.08,7.36,6.29,2.01,1.74,4.01,3.54,6.02,5.35,65.2,60.05,106.12,146.11,106.12,241.73Z"/>
      <path class="cls-1" d="M2278.14,888.73c-29.74,29.33-65.08,53.01-104.25,69.33-10.2-3.85-26.31-11.47-32.17-14.08-48.67-21.33-97.23-51.42-143.02-78.1,0,0,0-.07-.07-.07,1.88-4.74,2.88-9.9,2.88-15.23,0-23.94-19.39-43.33-43.26-43.33-3.55,0-7.02.4-10.37,1.27h-.07c-37.7-91.87-70.47-186.77-81.45-286.26,1.48-.62,37.6,27.68,48.89,37.18,39.93,33.43,84.8,65.11,129.4,92,9.62,5.83,46.41,25.22,46.68,25.67-.62,2.75-.87,5.55-.87,8.5,0,23.81,19.32,43.13,43.19,43.13,5.36,0,10.44-1.01,15.18-2.8.13.05,80.44,103.98,122.1,154.72,2.33,2.91.36.45,7.22,8.07Z"/>
      <path class="cls-1" d="M2021.23,982.1c-168.87-13.5-301.72-154.83-301.72-327.18,0-4.32.09-8.61.25-12.9,57.53,71.34,122.77,135.87,195.14,191.76-.4,1.14-.72,2.28-1.07,3.42-1,3.67-1.54,7.49-1.54,11.51,0,23.86,19.32,43.26,43.28,43.26,3.2,0,6.35-.34,9.35-1.07l56.3,91.2Z"/>
      <path class="cls-1" d="M2098.07,651.76c-3.41-1.81-109.33-59.91-166.83-108.06-6.22-5.15-31.83-27.42-43.13-40.19,4.21-6.95,6.62-15.05,6.62-23.74,0-22.8-16.65-41.79-38.45-45.34v-.07s1.54-47.88,3.61-49.28c5.62-3.88,11.37-7.62,17.25-11.23,24.07-14.58,50.22-26.08,77.83-34.1,1.14-.33,2.27-.67,3.41-.94,5.42-1.4,10.83-2.74,16.32-4.01,26.08,109.66,121.9,313.61,123.37,316.95Z"/>
      <path class="cls-1" d="M1927.42,815.8c-58.85-45.66-115.63-95.07-162.83-153.06-6.95-8.56-38.92-51.74-41.05-58.31-.04-.11-.07-.24-.11-.36v-.02c9.66-62.13,36.76-118.5,76.11-163.93,2.44,1.97,12.01,10.08,12.79,11.52-4.94,7.29-9.97,18.6-9.97,28.15,0,23.21,17.26,42.46,39.59,45.54,12.25,100.85,46.33,197.6,85.47,290.47Z"/>
      <path class="cls-1" d="M2148.95,967.19c-31.63,10.3-65.33,15.98-100.37,16.18l-63.99-102.57,164.36,86.39Z"/>
      <path class="cls-1" d="M1834.7,405.22c-3.15,31.26.05-.62-3.22,31.9l-15.47-14.65c6.01-5.99,12.23-11.74,18.69-17.24Z"/>
      <path class="cls-1" d="M2356.04,767.91c-14.18,38.68-35.44,73.94-62.18,104.21l-.62-.69c-26.69-27.54-52.02-56.83-75.82-86.91-14.98-19.07-51.89-73.29-53.82-76.24,3.87,1.34,127.04,44.87,191.78,59.52l.67.11Z"/>
      <path class="cls-1" d="M2376,654.99c0,31.49-4.41,61.92-12.7,90.74-.54.13-1.34.07-2.34-.07-34.9-7.96-70.34-16.52-104.45-27.48-10.16-3.21-72.02-24.81-82.78-31.9.2-1.74.33-3.48.33-5.28,0-23.87-19.32-43.13-43.13-43.13-4.35,0-8.49.6-12.44,1.81-.87-.33-98.29-201-121.23-309.13,16.38-2.54,33.23-3.88,50.35-3.88,39.52,0,77.43,7.02,112.54,19.79,2.34.8,4.61,1.67,6.95,2.61,2.94,1.14,5.88,2.34,8.76,3.61,18.72,8.02,36.58,17.59,53.36,28.75,2.34,1.61,4.75,3.21,7.09,4.88,1.94,1.34,3.81,2.67,5.68,4.01,1.47,1.07,2.94,2.14,4.35,3.28,1.4,1,2.74,2.01,4.01,3.08,2.07,1.6,4.15,3.28,6.15,4.95,2.47,2.01,4.95,4.08,7.36,6.29,2.01,1.74,4.01,3.54,6.02,5.35,65.2,60.05,106.12,146.11,106.12,241.73Z"/>
      <path class="cls-1" d="M2278.14,888.73c-29.74,29.33-65.08,53.01-104.25,69.33-10.2-3.85-26.31-11.47-32.17-14.08-48.67-21.33-97.23-51.42-143.02-78.1,0,0,0-.07-.07-.07,1.88-4.74,2.88-9.9,2.88-15.23,0-23.94-19.39-43.33-43.26-43.33-3.55,0-7.02.4-10.37,1.27h-.07c-37.7-91.87-70.47-186.77-81.45-286.26,1.48-.62,37.6,27.68,48.89,37.18,39.93,33.43,84.8,65.11,129.4,92,9.62,5.83,46.41,25.22,46.68,25.67-.62,2.75-.87,5.55-.87,8.5,0,23.81,19.32,43.13,43.19,43.13,5.36,0,10.44-1.01,15.18-2.8.13.05,80.44,103.98,122.1,154.72,2.33,2.91.36.45,7.22,8.07Z"/>
      <path class="cls-1" d="M2021.23,982.1c-168.87-13.5-301.72-154.83-301.72-327.18,0-4.32.09-8.61.25-12.9,57.53,71.34,122.77,135.87,195.14,191.76-.4,1.14-.72,2.28-1.07,3.42-1,3.67-1.54,7.49-1.54,11.51,0,23.86,19.32,43.26,43.28,43.26,3.2,0,6.35-.34,9.35-1.07l56.3,91.2Z"/>
      <path class="cls-1" d="M2098.07,651.76c-3.41-1.81-109.33-59.91-166.83-108.06-6.22-5.15-31.83-27.42-43.13-40.19,4.21-6.95,6.62-15.05,6.62-23.74,0-22.8-16.65-41.79-38.45-45.34v-.07s1.54-47.88,3.61-49.28c5.62-3.88,11.37-7.62,17.25-11.23,24.07-14.58,50.22-26.08,77.83-34.1,1.14-.33,2.27-.67,3.41-.94,5.42-1.4,10.83-2.74,16.32-4.01,26.08,109.66,121.9,313.61,123.37,316.95Z"/>
      <path class="cls-1" d="M1927.42,815.8c-58.85-45.66-115.63-95.07-162.83-153.06-6.95-8.56-38.92-51.74-41.05-58.31-.04-.11-.07-.24-.11-.36v-.02c9.66-62.13,36.76-118.5,76.11-163.93,2.44,1.97,12.01,10.08,12.79,11.52-4.94,7.29-9.97,18.6-9.97,28.15,0,23.21,17.26,42.46,39.59,45.54,12.25,100.85,46.33,197.6,85.47,290.47Z"/>
      <path class="cls-1" d="M2148.95,967.19c-31.63,10.3-65.33,15.98-100.37,16.18l-63.99-102.57,164.36,86.39Z"/>
      <path class="cls-1" d="M1834.7,405.22c-3.15,31.26.05-.62-3.22,31.9l-15.47-14.65c6.01-5.99,12.23-11.74,18.69-17.24Z"/>
      <path class="cls-1" d="M2356.04,767.91c-14.18,38.68-35.44,73.94-62.18,104.21l-.62-.69c-26.69-27.54-52.02-56.83-75.82-86.91-14.98-19.07-51.89-73.29-53.82-76.24,3.87,1.34,127.04,44.87,191.78,59.52l.67.11Z"/>
    </g>
    <g>
      <path d="M346.97,1518.1v-638.88h77.41v638.88h-77.41Z"/>
      <path d="M474.99,972.26v-93.04h310.38v93.04h-116.86v545.84h-77.41v-545.84h-116.11Z"/>
      <path d="M1187.3,1518.1h-207.67c-24.82,0-45.66-3.54-62.52-10.63-16.88-7.09-31.89-18.9-45.03-35.44-13.15-16.53-22.21-33.81-27.17-51.84-4.97-18.01-7.44-42.67-7.44-73.99v-307.48c0-60.84,16.62-105.14,49.87-132.92,12.9-10.63,26.54-17.72,40.94-21.27,14.39-3.54,36.22-5.32,65.5-5.32h195.01v93.04h-226.27c-13.4,0-24.69,6.65-33.87,19.94-9.19,13.29-13.77,29.68-13.77,49.18v108.99h273.91v93.04h-273.91v124.94c0,14.77,5.21,28.06,15.63,39.88,9.42,9.46,18.61,15.06,27.54,16.84h229.25v93.04Z"/>
      <path d="M1621.24,1518.1h-230c-32.75,0-60.55-15.06-83.36-45.19-22.83-30.13-34.24-66.15-34.24-108.11v-327.86c0-47.25,11.17-85.36,33.5-114.31,22.33-28.94,52.1-43.42,89.32-43.42h226.27v93.04h-215.85c-37.22,0-55.82,22.15-55.82,66.46v318.11c0,19.49,5.21,35.75,15.63,48.74,10.42,13,23.82,19.49,40.19,19.49h214.37v93.04Z"/>
    </g>
    <g>
      <path class="cls-1" d="M1729.15,1160.29v-70.17h14.17v70.17h-14.17Z"/>
      <path class="cls-1" d="M1754.5,1160.29v-70.17h13.78l28.72,46.86v-46.86h13.16v70.17h-14.22l-28.29-45.76v45.76h-13.16Z"/>
      <path class="cls-1" d="M1819.11,1137.46l13.78-1.34c.83,4.63,2.51,8.03,5.05,10.2,2.54,2.17,5.96,3.25,10.27,3.25,4.56,0,8-.96,10.31-2.9,2.31-1.93,3.47-4.19,3.47-6.77,0-1.66-.49-3.07-1.46-4.24-.97-1.17-2.67-2.18-5.1-3.04-1.66-.58-5.44-1.6-11.34-3.06-7.59-1.88-12.92-4.2-15.99-6.94-4.31-3.86-6.46-8.57-6.46-14.12,0-3.57,1.01-6.92,3.04-10.03,2.03-3.11,4.95-5.48,8.76-7.11,3.81-1.63,8.42-2.44,13.81-2.44,8.81,0,15.44,1.93,19.89,5.79,4.45,3.86,6.79,9.01,7.01,15.46l-14.17.62c-.61-3.6-1.91-6.2-3.9-7.78-1.99-1.58-4.99-2.37-8.97-2.37s-7.34.85-9.67,2.54c-1.5,1.08-2.25,2.54-2.25,4.36,0,1.66.7,3.08,2.11,4.26,1.79,1.5,6.13,3.06,13.02,4.69,6.89,1.63,11.99,3.31,15.29,5.05,3.3,1.74,5.89,4.12,7.75,7.13s2.8,6.74,2.8,11.18c0,4.02-1.12,7.79-3.35,11.3-2.23,3.51-5.39,6.12-9.48,7.83-4.08,1.71-9.17,2.56-15.27,2.56-8.87,0-15.68-2.05-20.44-6.15-4.75-4.1-7.59-10.07-8.52-17.92Z"/>
      <path class="cls-1" d="M1901.42,1160.29v-58.3h-20.82v-11.87h55.76v11.87h-20.77v58.3h-14.17Z"/>
      <path class="cls-1" d="M1942.62,1160.29v-70.17h14.17v70.17h-14.17Z"/>
      <path class="cls-1" d="M1983.63,1160.29v-58.3h-20.82v-11.87h55.76v11.87h-20.77v58.3h-14.17Z"/>
      <path class="cls-1" d="M2025.17,1090.13h14.17v38c0,6.03.17,9.94.53,11.73.61,2.87,2.05,5.18,4.33,6.92,2.28,1.74,5.4,2.61,9.36,2.61s7.05-.82,9.09-2.46c2.04-1.64,3.27-3.66,3.69-6.05.41-2.39.62-6.37.62-11.92v-38.82h14.17v36.85c0,8.42-.38,14.38-1.15,17.85-.77,3.48-2.18,6.41-4.24,8.81-2.06,2.39-4.81,4.3-8.26,5.72-3.45,1.42-7.95,2.13-13.5,2.13-6.7,0-11.78-.77-15.24-2.32-3.46-1.55-6.2-3.56-8.21-6.03-2.01-2.47-3.33-5.07-3.97-7.78-.93-4.02-1.39-9.96-1.39-17.81v-37.43Z"/>
      <path class="cls-1" d="M2109.39,1160.29v-58.3h-20.82v-11.87h55.76v11.87h-20.77v58.3h-14.17Z"/>
      <path class="cls-1" d="M2146.38,1125.64c0-7.15,1.07-13.15,3.21-18,1.59-3.57,3.77-6.78,6.53-9.62,2.76-2.84,5.78-4.95,9.07-6.32,4.37-1.85,9.41-2.78,15.12-2.78,10.34,0,18.61,3.21,24.82,9.62,6.21,6.41,9.31,15.33,9.31,26.75s-3.08,20.19-9.24,26.59c-6.16,6.4-14.39,9.6-24.7,9.6s-18.73-3.18-24.89-9.55c-6.16-6.37-9.24-15.13-9.24-26.3ZM2160.98,1125.16c0,7.95,1.83,13.97,5.5,18.07,3.67,4.1,8.33,6.15,13.98,6.15s10.28-2.03,13.9-6.1c3.62-4.07,5.43-10.17,5.43-18.31s-1.76-14.04-5.29-18c-3.53-3.96-8.21-5.94-14.05-5.94s-10.55,2-14.12,6.01c-3.57,4-5.36,10.04-5.36,18.12Z"/>
      <path class="cls-1" d="M2247.78,1090.13h25.89c5.84,0,10.29.45,13.35,1.34,4.12,1.21,7.64,3.37,10.58,6.46,2.94,3.1,5.17,6.88,6.7,11.37,1.53,4.48,2.3,10.01,2.3,16.58,0,5.78-.72,10.75-2.15,14.93-1.75,5.11-4.26,9.24-7.51,12.4-2.46,2.39-5.78,4.26-9.96,5.6-3.13.99-7.31,1.48-12.54,1.48h-26.66v-70.17ZM2261.95,1102v46.47h10.58c3.96,0,6.81-.22,8.57-.67,2.3-.57,4.2-1.55,5.72-2.92,1.52-1.37,2.75-3.63,3.71-6.77.96-3.14,1.44-7.43,1.44-12.85s-.48-9.59-1.44-12.49c-.96-2.9-2.3-5.17-4.02-6.8-1.72-1.63-3.91-2.73-6.56-3.3-1.98-.45-5.86-.67-11.63-.67h-6.37Z"/>
      <path class="cls-1" d="M2316.17,1160.29v-70.17h52.03v11.87h-37.86v15.56h35.23v11.82h-35.23v19.1h39.2v11.82h-53.37Z"/>
      <path class="cls-1" d="M1745.37,1277.92v-58.3h-20.82v-11.87h55.76v11.87h-20.77v58.3h-14.17Z"/>
      <path class="cls-1" d="M1789.45,1277.92v-70.17h52.03v11.87h-37.86v15.56h35.23v11.82h-35.23v19.1h39.2v11.82h-53.37Z"/>
      <path class="cls-1" d="M1899.73,1252.12l13.74,4.36c-2.11,7.66-5.61,13.35-10.51,17.06-4.9,3.72-11.11,5.58-18.64,5.58-9.32,0-16.98-3.18-22.97-9.55-6-6.37-9-15.07-9-26.11,0-11.68,3.02-20.75,9.05-27.21,6.03-6.46,13.96-9.69,23.79-9.69,8.58,0,15.55,2.54,20.92,7.61,3.19,3,5.58,7.31,7.18,12.92l-14.02,3.35c-.83-3.64-2.56-6.51-5.19-8.62-2.63-2.11-5.83-3.16-9.6-3.16-5.2,0-9.42,1.87-12.66,5.6-3.24,3.73-4.86,9.78-4.86,18.14,0,8.87,1.6,15.19,4.79,18.95,3.19,3.77,7.34,5.65,12.44,5.65,3.76,0,7-1.2,9.72-3.59,2.71-2.39,4.66-6.16,5.84-11.3Z"/>
      <path class="cls-1" d="M1925.77,1277.92v-70.17h13.78l28.72,46.86v-46.86h13.16v70.17h-14.22l-28.29-45.76v45.76h-13.16Z"/>
      <path class="cls-1" d="M1993.54,1243.27c0-7.15,1.07-13.15,3.21-18,1.59-3.57,3.77-6.78,6.53-9.62,2.76-2.84,5.78-4.95,9.07-6.32,4.37-1.85,9.41-2.78,15.12-2.78,10.34,0,18.61,3.21,24.82,9.62,6.21,6.41,9.31,15.33,9.31,26.75s-3.08,20.19-9.24,26.59c-6.16,6.4-14.39,9.6-24.7,9.6s-18.73-3.18-24.89-9.55c-6.16-6.37-9.24-15.13-9.24-26.3ZM2008.14,1242.79c0,7.95,1.83,13.97,5.5,18.07,3.67,4.1,8.33,6.15,13.98,6.15s10.28-2.03,13.9-6.1c3.62-4.07,5.43-10.17,5.43-18.31s-1.76-14.04-5.29-18c-3.53-3.96-8.21-5.94-14.05-5.94s-10.55,2-14.12,6.01c-3.57,4-5.36,10.04-5.36,18.12Z"/>
      <path class="cls-1" d="M2073.04,1277.92v-69.59h14.17v57.77h35.23v11.82h-49.39Z"/>
      <path class="cls-1" d="M2129.66,1243.27c0-7.15,1.07-13.15,3.21-18,1.59-3.57,3.77-6.78,6.53-9.62,2.76-2.84,5.78-4.95,9.07-6.32,4.37-1.85,9.41-2.78,15.12-2.78,10.34,0,18.61,3.21,24.82,9.62,6.21,6.41,9.31,15.33,9.31,26.75s-3.08,20.19-9.24,26.59c-6.16,6.4-14.39,9.6-24.7,9.6s-18.73-3.18-24.89-9.55c-6.16-6.37-9.24-15.13-9.24-26.3ZM2144.26,1242.79c0,7.95,1.83,13.97,5.5,18.07,3.67,4.1,8.33,6.15,13.98,6.15s10.28-2.03,13.9-6.1c3.62-4.07,5.43-10.17,5.43-18.31s-1.76-14.04-5.29-18c-3.53-3.96-8.21-5.94-14.05-5.94s-10.55,2-14.12,6.01c-3.57,4-5.36,10.04-5.36,18.12Z"/>
      <path class="cls-1" d="M2241.42,1252.12v-11.82h30.54v27.95c-2.97,2.87-7.27,5.4-12.9,7.59-5.63,2.19-11.34,3.28-17.11,3.28-7.34,0-13.74-1.54-19.19-4.62s-9.56-7.48-12.3-13.21-4.12-11.96-4.12-18.69c0-7.31,1.53-13.8,4.59-19.48,3.06-5.68,7.55-10.03,13.45-13.07,4.5-2.33,10.1-3.49,16.8-3.49,8.71,0,15.51,1.83,20.41,5.48,4.9,3.65,8.05,8.7,9.45,15.15l-14.07,2.63c-.99-3.45-2.85-6.17-5.58-8.16-2.73-1.99-6.13-2.99-10.22-2.99-6.19,0-11.11,1.96-14.77,5.89-3.65,3.92-5.48,9.75-5.48,17.47,0,8.33,1.85,14.57,5.55,18.74,3.7,4.16,8.55,6.25,14.55,6.25,2.97,0,5.94-.58,8.93-1.75,2.98-1.17,5.54-2.58,7.68-4.24v-8.9h-16.23Z"/>
      <path class="cls-1" d="M2284.59,1277.92v-70.17h14.17v70.17h-14.17Z"/>
      <path class="cls-1" d="M2375.53,1277.92h-15.41l-6.13-15.94h-28.05l-5.79,15.94h-15.03l27.33-70.17h14.98l28.09,70.17ZM2349.44,1250.16l-9.67-26.04-9.48,26.04h19.14Z"/>
    </g>
    <g>
      <path class="cls-1" d="M1723.05,1350.37h34.11v91.49c0,14.52.42,23.93,1.27,28.23,1.46,6.91,4.94,12.46,10.43,16.65,5.49,4.19,13,6.28,22.53,6.28s16.98-1.98,21.89-5.93c4.92-3.96,7.87-8.81,8.87-14.58,1-5.76,1.5-15.33,1.5-28.69v-93.45h34.11v88.72c0,20.28-.92,34.61-2.77,42.98-1.84,8.37-5.24,15.44-10.2,21.2-4.96,5.76-11.58,10.35-19.88,13.77-8.3,3.42-19.13,5.13-32.49,5.13-16.13,0-28.36-1.86-36.7-5.59-8.34-3.72-14.92-8.56-19.76-14.52-4.84-5.95-8.03-12.19-9.56-18.72-2.23-9.68-3.34-23.97-3.34-42.86v-90.11Z"/>
      <path class="cls-1" d="M1909.26,1519.29v-168.92h115.8v28.58h-81.69v39.98h70.52v28.58h-70.52v71.79h-34.11Z"/>
      <path class="cls-1" d="M2068.52,1519.29v-168.92h54.73c20.74,0,34.26.85,40.56,2.54,9.68,2.53,17.78,8.05,24.31,16.53,6.53,8.49,9.79,19.46,9.79,32.9,0,10.37-1.88,19.09-5.65,26.16-3.76,7.07-8.55,12.62-14.35,16.65-5.8,4.03-11.7,6.7-17.69,8.01-8.14,1.61-19.93,2.42-35.37,2.42h-22.24v63.72h-34.11ZM2102.62,1378.95v47.93h18.67c13.44,0,22.43-.88,26.96-2.65,4.53-1.77,8.08-4.53,10.66-8.3,2.57-3.76,3.86-8.14,3.86-13.14,0-6.14-1.81-11.21-5.42-15.21-3.61-3.99-8.18-6.49-13.71-7.49-4.07-.77-12.25-1.15-24.54-1.15h-16.48Z"/>
      <path class="cls-1" d="M2376.07,1519.29h-37.1l-14.75-38.37h-67.52l-13.94,38.37h-36.18l65.79-168.92h36.07l67.64,168.92ZM2313.27,1452.46l-23.28-62.68-22.81,62.68h46.09Z"/>
    </g>
  </g>
</svg>