<?xml version="1.0" encoding="UTF-8"?>
<svg xmlns="http://www.w3.org/2000/svg" viewBox="0 0 864 1422">
  <defs>
    <style>
      .cls-1 {
        fill: #b20a32;
      }
    </style>
  </defs>
  <g id="Brasão">
    <polygon class="cls-1" points="29.79 1073.18 29.79 1153.63 432.07 1395 834.35 1153.63 834.35 1073.18 432.07 1314.54 29.79 1073.18"/>
  </g>
  <g id="FI">
    <g id="objetos">
      <path class="cls-1" d="M312.84,769.93c15.91,3.7,33,8.97,50.81,15.59-3.04,19.7-5.21,40.68-6.45,62.43-12.42,8.14-24.4,16.52-35.83,25.09l6,8c9.38-7.03,19.15-13.93,29.22-20.68-.41,10.25-.63,20.63-.63,31.12s.21,20.52.61,30.59c-35.57-23.84-66.37-49.16-89.15-73.48-29.69-31.72-42.06-57.97-33.94-72.04s37.04-16.48,79.36-6.62Z"/>
      <path class="cls-1" d="M421.07,972.04c-16.27,7.99-32.34,15.11-47.93,21.24-2.48-16.56-4.34-34.03-5.55-52.11,8.6,5.44,17.42,10.78,26.44,15.98,8.98,5.19,18.01,10.15,27.04,14.89Z"/>
      <path class="cls-1" d="M394.03,825.29c-8.99,5.18-17.79,10.51-26.4,15.96,1.21-18.07,3.09-35.52,5.58-52.07,15.56,6.12,31.61,13.23,47.85,21.21-9,4.73-18.03,9.7-27.03,14.9Z"/>
      <path class="cls-1" d="M470.16,957.15c9.01-5.2,17.83-10.54,26.43-15.98-2.85,42.83-9.39,82.28-19.09,114.23-12.61,41.57-29.17,65.42-45.41,65.42s-32.8-23.85-45.41-65.42c-4.77-15.69-8.76-33.19-11.94-52.01,18.6-7.23,37.87-15.85,57.35-25.67,13.25,6.68,26.49,12.86,39.61,18.48l3.94-9.2c-10.78-4.6-21.63-9.62-32.51-14.96,9-4.73,18.03-9.69,27.03-14.89Z"/>
      <path class="cls-1" d="M497.26,853.56c-10.37-6.7-21.09-13.25-32.1-19.61-11.03-6.37-22.08-12.38-33.07-18.02-10.99,5.64-22.04,11.65-33.06,18.02-10.99,6.34-21.7,12.9-32.13,19.63-.62,12.42-.94,25.08-.94,37.9s.31,25.12.92,37.37c10.38,6.71,21.12,13.27,32.15,19.64,10.99,6.35,22.03,12.34,33.07,18.01,10.99-5.64,22.04-11.65,33.06-18.01,11.02-6.37,21.76-12.93,32.14-19.64.61-12.25.92-24.74.92-37.37s-.33-25.44-.96-37.92ZM432.09,934.24c-23.76,0-43.02-19.26-43.02-43.02s19.26-43.03,43.02-43.03,43.03,19.27,43.03,43.03-19.27,43.02-43.03,43.02Z"/>
      <path class="cls-1" d="M507.59,860.35c15.05,10.08,29.24,20.44,42.34,30.87-13.09,10.42-27.28,20.77-42.32,30.85.4-10.07.61-20.29.61-30.59s-.22-20.85-.63-31.13Z"/>
      <path class="cls-1" d="M596.76,848.59c-11.16,11.91-24.25,24.07-38.88,36.18-15.56-12.48-32.66-24.86-50.89-36.81-.84-14.72-2.1-29.19-3.79-43.28l-9.93,1.2c1.39,11.54,2.47,23.36,3.27,35.35-8.58-5.42-17.39-10.75-26.38-15.94-9.01-5.2-18.04-10.17-27.04-14.9,38.43-18.88,75.77-32.9,108.23-40.46,42.31-9.86,71.23-7.45,79.35,6.62s-4.25,40.32-33.94,72.04Z"/>
      <path class="cls-1" d="M432.07,589.35L29.79,347.98v643.65l402.28,241.37,402.28-241.37V347.98l-402.28,241.37ZM604.06,927.02c33.4,35.67,45.93,65.45,35.3,83.87-6.82,11.82-21.95,17.77-44.11,17.77-11.35,0-24.57-1.57-39.45-4.71-3.83,7.75-11.81,13.09-21.04,13.09-12.97,0-23.47-10.51-23.47-23.47s10.5-23.47,23.47-23.47,23.46,10.51,23.46,23.47c0,.22,0,.44,0,.66,38.23,7.99,64.71,5.14,72.49-8.34,8.12-14.07-4.25-40.33-33.94-72.04-11.16-11.92-24.25-24.08-38.88-36.18-15.55,12.48-32.64,24.84-50.86,36.79-2.62,46.43-9.48,89.36-19.95,123.85-14.19,46.75-33.72,72.51-54.98,72.51s-40.79-25.76-54.98-72.51c-4.72-15.54-8.7-32.8-11.9-51.31-17.53,6.44-34.37,11.58-50.11,15.25-17.6,4.1-33.08,6.13-46.14,6.13-22.24,0-37.44-5.89-44.14-17.49-10.33-17.89.5-45.53,30.51-78.93-2.51-3.74-3.97-8.23-3.97-13.06,0-12.96,10.51-23.47,23.47-23.47s23.47,10.51,23.47,23.47-10.51,23.47-23.47,23.47c-4.51,0-8.72-1.27-12.29-3.47-26.06,29.12-36.85,53.5-29.06,66.99,8.12,14.06,37.04,16.48,79.36,6.62,15.89-3.7,32.95-8.96,50.74-15.57-3.03-19.72-5.19-40.72-6.42-62.48-38.79-25.44-72.46-52.78-97.04-79.04-33.4-35.67-45.93-65.46-35.3-83.87,10.63-18.42,42.69-22.45,90.28-11.36,15.76,3.67,32.63,8.82,50.2,15.28,3.18-18.33,7.13-35.42,11.81-50.82,14.19-46.76,33.72-72.51,54.98-72.51s39.16,23.18,53.08,65.82c.42-.02.85-.04,1.27-.04,12.97,0,23.47,10.51,23.47,23.47s-10.5,23.47-23.47,23.47-23.46-10.51-23.46-23.47c0-9.01,5.08-16.84,12.54-20.77-12.19-37.02-27.88-58.48-43.43-58.48s-32.79,23.84-45.41,65.42c-4.72,15.55-8.69,32.89-11.85,51.52,18.57,7.22,37.81,15.84,57.26,25.64,41.44-20.88,81.95-36.37,116.99-44.53,47.59-11.09,79.65-7.06,90.28,11.36,10.63,18.41-1.9,48.2-35.3,83.87-11.05,11.8-23.94,23.83-38.3,35.8,14.36,11.97,27.25,23.99,38.3,35.8Z"/>
    </g>
  </g>
  <g id="ITEC">
    <path class="cls-1" d="M613.5,209.37c0,17.41-2.44,34.22-7.02,50.15-.3.07-.74.04-1.29-.04-19.29-4.4-38.88-9.13-57.73-15.19-5.62-1.77-39.8-13.71-45.76-17.63.11-.96.18-1.92.18-2.92,0-13.19-10.68-23.84-23.84-23.84-2.4,0-4.69.33-6.87,1-.48-.18-54.33-111.1-67.01-170.86,9.05-1.4,18.37-2.14,27.83-2.14,21.84,0,42.8,3.88,62.2,10.94,1.29.44,2.55.92,3.84,1.44,1.63.63,3.25,1.29,4.84,2,10.35,4.44,20.22,9.72,29.49,15.89,1.29.89,2.62,1.77,3.92,2.7,1.07.74,2.11,1.48,3.14,2.22.81.59,1.63,1.18,2.4,1.81.78.55,1.52,1.11,2.22,1.7,1.15.89,2.29,1.81,3.4,2.73,1.37,1.11,2.73,2.25,4.07,3.47,1.11.96,2.22,1.96,3.33,2.96,36.04,33.19,58.65,80.76,58.65,133.61Z"/>
    <path class="cls-1" d="M560.88,339.72c-16.19,15.93-35.33,28.87-56.58,37.88h-.04c-5.25-1.7-16.15-6.87-19.81-8.5-26.91-11.79-53.74-28.42-79.06-43.17,0,0,0-.04-.04-.04,1.03-2.62,1.59-5.47,1.59-8.43,0-13.23-10.72-23.95-23.91-23.95-1.96,0-3.88.22-5.73.7h-.04c-20.84-50.78-38.95-103.23-45.02-158.22.81-.33,20.77,15.3,27.02,20.55,22.06,18.48,46.86,36,71.52,50.86,5.32,3.22,25.65,13.93,25.8,14.19-.33,1.52-.48,3.07-.48,4.69,0,13.16,10.68,23.84,23.88,23.84,2.96,0,5.77-.55,8.39-1.55.07.04,44.46,57.47,67.49,85.52,1.4,1.74,0,0,5.03,5.62Z"/>
    <path class="cls-1" d="M417.95,390.36c-92.73-7.13-165.91-83.86-167.43-178.07-.04-.04-.04-.07,0-.15-.04-.04-.04-.07,0-.11.04-3.36.18-6.73.44-10.13,31.86,39.55,68,75.32,108.11,106.29-.22.63-.41,1.26-.59,1.88-.55,2.03-.85,4.14-.85,6.36,0,13.19,10.68,23.91,23.91,23.91,1.77,0,3.51-.18,5.17-.59l31.23,50.6Z"/>
    <path class="cls-1" d="M460.31,207.58c-1.88-1-60.43-33.12-92.21-59.73-3.44-2.85-17.59-15.15-23.84-22.21,2.33-3.84,3.66-8.32,3.66-13.12,0-12.6-9.2-23.1-21.25-25.06v-.04s.85-26.46,2-27.24c3.1-2.14,6.28-4.21,9.54-6.21,13.31-8.06,27.76-14.41,43.02-18.85.63-.18,1.26-.37,1.88-.52,2.99-.78,5.99-1.52,9.02-2.22,14.41,60.61,67.38,173.34,68.19,175.19Z"/>
    <path class="cls-1" d="M365.99,298.26c-32.52-25.24-63.9-52.56-90-84.6-3.84-4.73-21.51-28.61-22.69-32.23-.15-.48-.26-1.03-.33-1.66v-.07c-1.11-9.76,8.28-33.71,11.86-42.17,7.06-16.63,17.22-34.56,30.16-47.2l.04.04c.37.26,6.88,5.73,7.36,6.61-2.73,4.03-5.51,10.28-5.51,15.56,0,12.82,9.54,23.47,21.88,25.17,6.76,55.73,25.61,109.21,47.23,160.55Z"/>
    <path class="cls-1" d="M602.53,271.72c-7.76,21.21-19.37,40.58-34,57.25-.11.04-.22.04-.33.04-14.75-15.23-28.75-31.42-41.91-48.05-8.28-10.53-28.68-40.51-29.75-42.13,2.14.74,70.22,24.8,106,32.89Z"/>
    <path class="cls-1" d="M488.43,381.93c-17.48,5.69-36.11,8.83-55.48,8.94l-35.37-56.7,90.85,47.75Z"/>
    <path class="cls-1" d="M312.96,88.95l-8.81-8.34-.04-.04.92-.89,3.81-3.66c1.4-1.26,4.43-3.93,5.95-5.23l-1.83,18.15Z"/>
  </g>
</svg>