<?xml version="1.0" encoding="UTF-8"?>
<svg xmlns="http://www.w3.org/2000/svg" viewBox="0 0 864 1422">
  <defs>
    <style>
      .cls-1 {
        fill: #0d8440;
      }
    </style>
  </defs>
  <g id="Brasão">
    <polygon class="cls-1" points="29.79 1085.65 29.79 1166.1 432.07 1407.47 834.35 1166.1 834.35 1085.65 432.07 1327.02 29.79 1085.65"/>
  </g>
  <g id="BIO">
    <path class="cls-1" d="M397.51,807.63h67.6c12.26,11.02,21.98,21.92,29.2,32.73h-127.9c6.44-9.53,16.24-20.22,31.1-32.73Z"/>
    <path class="cls-1" d="M367.36,930.82h129.28c-6.68,10.83-15.88,21.72-27.65,32.72h-73.98c-11.77-11-20.97-21.89-27.65-32.72Z"/>
    <path class="cls-1" d="M468.99,722.18h-75.58c-14.33-12.52-23.46-23.19-29.26-32.73h132.49c-6.68,10.83-15.88,21.72-27.65,32.73Z"/>
    <path class="cls-1" d="M397.51,1049h68.98c14.86,12.51,24.66,23.2,31.1,32.73h-131.18c6.44-9.53,16.24-20.22,31.1-32.73Z"/>
    <path class="cls-1" d="M360.61,850.36h139.67c4.87,9.28,7.9,18.51,9.11,27.73h-155.28c.33-8.71,1.61-17.61,6.5-27.73Z"/>
    <path class="cls-1" d="M354.22,893.09h155.56c-.75,9.25-3.31,18.48-7.7,27.73h-140.16c-4.39-9.25-6.95-18.48-7.7-27.73Z"/>
    <path class="cls-1" d="M432.07,590.44L29.79,349.07v643.65l402.28,241.37,402.28-241.37V349.07l-402.28,241.37ZM399.3,727.18c10.56,8.73,23.58,18.35,39.63,29.05,28.19,18.79,49.4,36.83,64.85,55.14,20.72,24.56,31.23,50.11,31.23,75.95,0,39-22.95,75.81-70.18,112.52-2.28,1.77-4.98,2.63-7.66,2.63-3.73,0-7.42-1.66-9.88-4.83-4.24-5.45-3.25-13.3,2.2-17.54,4.98-3.87,9.64-7.72,13.99-11.56h-62.96c4.35,3.84,9.01,7.69,13.99,11.56,7.42,5.76,15.41,11.49,24.42,17.5,9.46,6.3,18.25,12.49,26.13,18.4,31.15,23.33,50.38,43.63,60.51,63.86,9.44,18.86,9.44,34.78,9.44,48.82,0,6.91-5.59,12.5-12.5,12.5s-12.5-5.59-12.5-12.5c0-11.78,0-23.25-6.62-36.95h-142.78c-6.62,13.7-6.62,25.17-6.62,36.95,0,6.91-5.6,12.5-12.5,12.5s-12.5-5.59-12.5-12.5c0-14.04,0-29.96,9.44-48.82,10.13-20.23,29.36-40.53,60.51-63.86,5.53-4.14,13.36-3.02,17.5,2.5,4.14,5.53,3.02,13.36-2.51,17.5-3.66,2.75-7.1,5.41-10.33,8h56.8c-3.23-2.59-6.67-5.25-10.33-8-7.52-5.63-15.93-11.55-25-17.6-9.53-6.35-18-12.42-25.9-18.56-47.23-36.71-70.18-73.52-70.18-112.52,0-14.05,0-29.97,9.44-48.82,10.13-20.24,29.36-40.53,60.51-63.87,5.53-4.14,13.36-3.02,17.5,2.51,4.14,5.52,3.02,13.36-2.51,17.5-3.66,2.74-7.1,5.4-10.33,7.99h55.78c-9.95-8.44-21.37-16.97-34.31-25.6-42.77-28.51-69.14-52.54-82.99-75.62-13.09-21.83-13.09-39.7-13.09-55.46,0-6.91,5.59-12.5,12.5-12.5s12.5,5.59,12.5,12.5c0,10.76,0,21.29,5.04,33.5h143.05c5.3-11.17,7.93-22.31,7.93-33.5,0-6.91,5.6-12.5,12.5-12.5s12.5,5.59,12.5,12.5c0,39-22.95,75.81-70.18,112.52-2.28,1.77-4.98,2.63-7.66,2.63-3.73,0-7.42-1.66-9.88-4.83-4.24-5.45-3.25-13.3,2.2-17.54,4.98-3.87,9.64-7.72,13.99-11.55h-64.18Z"/>
  </g>
  <g id="ITEC">
    <path class="cls-1" d="M613.5,215.61c0,17.41-2.44,34.22-7.02,50.15-.3.07-.74.04-1.29-.04-19.29-4.4-38.88-9.13-57.73-15.19-5.62-1.77-39.8-13.71-45.76-17.63.11-.96.18-1.92.18-2.92,0-13.19-10.68-23.84-23.84-23.84-2.4,0-4.69.33-6.87,1-.48-.18-54.33-111.1-67.01-170.86,9.05-1.4,18.37-2.14,27.83-2.14,21.84,0,42.8,3.88,62.2,10.94,1.29.44,2.55.92,3.84,1.44,1.63.63,3.25,1.29,4.84,2,10.35,4.44,20.22,9.72,29.49,15.89,1.29.89,2.62,1.77,3.92,2.7,1.07.74,2.11,1.48,3.14,2.22.81.59,1.63,1.18,2.4,1.81.78.55,1.52,1.11,2.22,1.7,1.15.89,2.29,1.81,3.4,2.73,1.37,1.11,2.73,2.25,4.07,3.47,1.11.96,2.22,1.96,3.33,2.96,36.04,33.19,58.65,80.76,58.65,133.61Z"/>
    <path class="cls-1" d="M560.88,345.96c-16.19,15.93-35.33,28.87-56.58,37.88h-.04c-5.25-1.7-16.15-6.87-19.81-8.5-26.91-11.79-53.74-28.42-79.06-43.17,0,0,0-.04-.04-.04,1.03-2.62,1.59-5.47,1.59-8.43,0-13.23-10.72-23.95-23.91-23.95-1.96,0-3.88.22-5.73.7h-.04c-20.84-50.78-38.95-103.23-45.02-158.22.81-.33,20.77,15.3,27.02,20.55,22.06,18.48,46.86,36,71.52,50.86,5.32,3.22,25.65,13.93,25.8,14.19-.33,1.52-.48,3.07-.48,4.69,0,13.16,10.68,23.84,23.88,23.84,2.96,0,5.77-.55,8.39-1.55.07.04,44.46,57.47,67.49,85.52,1.4,1.74,0,0,5.03,5.62Z"/>
    <path class="cls-1" d="M417.95,396.59c-92.73-7.13-165.91-83.86-167.43-178.07-.04-.04-.04-.07,0-.15-.04-.04-.04-.07,0-.11.04-3.36.18-6.73.44-10.13,31.86,39.55,68,75.32,108.11,106.29-.22.63-.41,1.26-.59,1.88-.55,2.03-.85,4.14-.85,6.36,0,13.19,10.68,23.91,23.91,23.91,1.77,0,3.51-.18,5.17-.59l31.23,50.6Z"/>
    <path class="cls-1" d="M460.31,213.82c-1.88-1-60.43-33.12-92.21-59.73-3.44-2.85-17.59-15.15-23.84-22.21,2.33-3.84,3.66-8.32,3.66-13.12,0-12.6-9.2-23.1-21.25-25.06v-.04s.85-26.46,2-27.24c3.1-2.14,6.28-4.21,9.54-6.21,13.31-8.06,27.76-14.41,43.02-18.85.63-.18,1.26-.37,1.88-.52,2.99-.78,5.99-1.52,9.02-2.22,14.41,60.61,67.38,173.34,68.19,175.19Z"/>
    <path class="cls-1" d="M365.99,304.49c-32.52-25.24-63.9-52.56-90-84.6-3.84-4.73-21.51-28.61-22.69-32.23-.15-.48-.26-1.03-.33-1.66v-.07c-1.11-9.76,8.28-33.71,11.86-42.17,7.06-16.63,17.22-34.56,30.16-47.2l.04.04c.37.26,6.88,5.73,7.36,6.61-2.73,4.03-5.51,10.28-5.51,15.56,0,12.82,9.54,23.47,21.88,25.17,6.76,55.73,25.61,109.21,47.23,160.55Z"/>
    <path class="cls-1" d="M602.53,277.96c-7.76,21.21-19.37,40.58-34,57.25-.11.04-.22.04-.33.04-14.75-15.23-28.75-31.42-41.91-48.05-8.28-10.53-28.68-40.51-29.75-42.13,2.14.74,70.22,24.8,106,32.89Z"/>
    <path class="cls-1" d="M488.43,388.17c-17.48,5.69-36.11,8.83-55.48,8.94l-35.37-56.7,90.85,47.75Z"/>
    <path class="cls-1" d="M312.96,95.18l-8.81-8.34-.04-.04.92-.89,3.81-3.66c1.4-1.26,4.43-3.93,5.95-5.23l-1.83,18.15Z"/>
  </g>
</svg>