<?xml version="1.0" encoding="UTF-8"?>
<svg xmlns="http://www.w3.org/2000/svg" viewBox="0 0 864 1422">
  <defs>
    <style>
      .cls-1 {
        fill: #fff;
      }
    </style>
  </defs>
  <g id="Brasão">
    <polygon class="cls-1" points="29.79 1085.65 29.79 1166.1 432.07 1407.47 834.35 1166.1 834.35 1085.65 432.07 1327.02 29.79 1085.65"/>
  </g>
  <g id="DMK">
    <g>
      <polygon class="cls-1" points="262.37 885.72 290.91 973.09 259.63 983.73 231.09 896.35 262.37 885.72"/>
      <path class="cls-1" d="M377.91,993h63.02c-8.39,14.04-21.5,22.41-34.66,21.02-11.04-1.17-21.4-9.12-28.36-21.02Z"/>
      <polygon class="cls-1" points="425.6 767 487.75 969 323.86 969 292.93 868.46 425.6 767"/>
      <polygon class="cls-1" points="478.53 726.14 561.02 965.37 520.63 982.67 446.84 736.7 478.53 726.14"/>
    </g>
    <path class="cls-1" d="M432,590.44L29.72,349.07v643.65l402.28,241.37,402.28-241.37V349.07l-402.28,241.37ZM659.38,802.21c2.1,6.28-1.3,13.08-7.59,15.17l-54,18c-1.25.42-2.53.62-3.79.62-5.03,0-9.71-3.18-11.38-8.21-2.1-6.28,1.3-13.08,7.59-15.17l54-18c6.28-2.1,13.08,1.3,15.17,7.59ZM547.27,759.63l27-54c2.96-5.92,10.17-8.33,16.1-5.36,5.92,2.96,8.33,10.17,5.36,16.1l-27,54c-2.1,4.2-6.34,6.63-10.74,6.63-1.8,0-3.63-.41-5.36-1.27-5.92-2.96-8.33-10.17-5.36-16.1ZM580.73,983.03l-63,27c-1.51.65-3.12.97-4.73.97-1.74,0-3.47-.38-5.08-1.13-3.1-1.45-5.43-4.15-6.41-7.42l-2.84-9.45h-31.06c-10.82,27.56-33.45,45.18-58.3,45.18-1.85,0-3.71-.09-5.58-.29-22.8-2.42-42.63-19.69-52.39-44.89h-44.43l-51.05,17.36c-1.25.43-2.56.64-3.86.64-1.85,0-3.68-.43-5.37-1.27-2.87-1.43-5.04-3.95-6.04-7l-36-110.19c-2.04-6.25,1.33-12.98,7.55-15.09l53.17-18.08,157.21-120.22-2.01-6.7c-1.87-6.21,1.54-12.78,7.7-14.83l54-18c6.24-2.08,12.99,1.25,15.13,7.47l90,261c2.05,5.94-.83,12.46-6.61,14.94ZM668.73,923.37c-2.1,4.2-6.34,6.63-10.74,6.63-1.8,0-3.63-.41-5.36-1.27l-54-27c-5.92-2.96-8.33-10.17-5.36-16.1,2.96-5.92,10.17-8.33,16.1-5.36l54,27c5.92,2.96,8.33,10.17,5.36,16.1Z"/>
  </g>
  <g id="ITEC">
    <path class="cls-1" d="M613.5,215.61c0,17.41-2.44,34.22-7.02,50.15-.3.07-.74.04-1.29-.04-19.29-4.4-38.88-9.13-57.73-15.19-5.62-1.77-39.8-13.71-45.76-17.63.11-.96.18-1.92.18-2.92,0-13.19-10.68-23.84-23.84-23.84-2.4,0-4.69.33-6.87,1-.48-.18-54.33-111.1-67.01-170.86,9.05-1.4,18.37-2.14,27.83-2.14,21.84,0,42.8,3.88,62.2,10.94,1.29.44,2.55.92,3.84,1.44,1.63.63,3.25,1.29,4.84,2,10.35,4.44,20.22,9.72,29.49,15.89,1.29.89,2.62,1.77,3.92,2.7,1.07.74,2.11,1.48,3.14,2.22.81.59,1.63,1.18,2.4,1.81.78.55,1.52,1.11,2.22,1.7,1.15.89,2.29,1.81,3.4,2.73,1.37,1.11,2.73,2.25,4.07,3.47,1.11.96,2.22,1.96,3.33,2.96,36.04,33.19,58.65,80.76,58.65,133.61Z"/>
    <path class="cls-1" d="M560.88,345.96c-16.19,15.93-35.33,28.87-56.58,37.88h-.04c-5.25-1.7-16.15-6.87-19.81-8.5-26.91-11.79-53.74-28.42-79.06-43.17,0,0,0-.04-.04-.04,1.03-2.62,1.59-5.47,1.59-8.43,0-13.23-10.72-23.95-23.91-23.95-1.96,0-3.88.22-5.73.7h-.04c-20.84-50.78-38.95-103.23-45.02-158.22.81-.33,20.77,15.3,27.02,20.55,22.06,18.48,46.86,36,71.52,50.86,5.32,3.22,25.65,13.93,25.8,14.19-.33,1.52-.48,3.07-.48,4.69,0,13.16,10.68,23.84,23.88,23.84,2.96,0,5.77-.55,8.39-1.55.07.04,44.46,57.47,67.49,85.52,1.4,1.74,0,0,5.03,5.62Z"/>
    <path class="cls-1" d="M417.95,396.59c-92.73-7.13-165.91-83.86-167.43-178.07-.04-.04-.04-.07,0-.15-.04-.04-.04-.07,0-.11.04-3.36.18-6.73.44-10.13,31.86,39.55,68,75.32,108.11,106.29-.22.63-.41,1.26-.59,1.88-.55,2.03-.85,4.14-.85,6.36,0,13.19,10.68,23.91,23.91,23.91,1.77,0,3.51-.18,5.17-.59l31.23,50.6Z"/>
    <path class="cls-1" d="M460.31,213.82c-1.88-1-60.43-33.12-92.21-59.73-3.44-2.85-17.59-15.15-23.84-22.21,2.33-3.84,3.66-8.32,3.66-13.12,0-12.6-9.2-23.1-21.25-25.06v-.04s.85-26.46,2-27.24c3.1-2.14,6.28-4.21,9.54-6.21,13.31-8.06,27.76-14.41,43.02-18.85.63-.18,1.26-.37,1.88-.52,2.99-.78,5.99-1.52,9.02-2.22,14.41,60.61,67.38,173.34,68.19,175.19Z"/>
    <path class="cls-1" d="M365.99,304.49c-32.52-25.24-63.9-52.56-90-84.6-3.84-4.73-21.51-28.61-22.69-32.23-.15-.48-.26-1.03-.33-1.66v-.07c-1.11-9.76,8.28-33.71,11.86-42.17,7.06-16.63,17.22-34.56,30.16-47.2l.04.04c.37.26,6.88,5.73,7.36,6.61-2.73,4.03-5.51,10.28-5.51,15.56,0,12.82,9.54,23.47,21.88,25.17,6.76,55.73,25.61,109.21,47.23,160.55Z"/>
    <path class="cls-1" d="M602.53,277.96c-7.76,21.21-19.37,40.58-34,57.25-.11.04-.22.04-.33.04-14.75-15.23-28.75-31.42-41.91-48.05-8.28-10.53-28.68-40.51-29.75-42.13,2.14.74,70.22,24.8,106,32.89Z"/>
    <path class="cls-1" d="M488.43,388.17c-17.48,5.69-36.11,8.83-55.48,8.94l-35.37-56.7,90.85,47.75Z"/>
    <path class="cls-1" d="M312.96,95.18l-8.81-8.34-.04-.04.92-.89,3.81-3.66c1.4-1.26,4.43-3.93,5.95-5.23l-1.83,18.15Z"/>
  </g>
</svg>