<?xml version="1.0" encoding="UTF-8"?>
<svg id="ITEC_e_Tutoria" data-name="ITEC e Tutoria" xmlns="http://www.w3.org/2000/svg" viewBox="0 0 2556.6 1672.29">
  <defs>
    <style>
      .cls-1 {
        fill: #006b92;
      }
    </style>
  </defs>
  <g id="Tutoria">
    <g id="Circutlo">
      <g>
        <path class="cls-1" d="M1152,1060.25c0,38.06-5.33,74.84-15.35,109.67-.65.16-1.62.08-2.83-.08-42.19-9.62-85.02-19.96-126.23-33.22-12.28-3.88-87.04-29.98-100.05-38.55.24-2.1.4-4.2.4-6.38,0-28.85-23.36-52.13-52.13-52.13-5.25,0-10.26.73-15.03,2.18-1.05-.4-118.8-242.93-146.52-373.61,19.8-3.07,40.17-4.69,60.85-4.69,47.76,0,93.58,8.49,136.01,23.92,2.83.97,5.58,2.02,8.4,3.15,3.56,1.37,7.11,2.83,10.59,4.36,22.63,9.7,44.21,21.25,64.49,34.75,2.83,1.94,5.74,3.88,8.57,5.9,2.34,1.62,4.61,3.23,6.87,4.85,1.78,1.29,3.56,2.59,5.25,3.96,1.7,1.21,3.31,2.42,4.85,3.72,2.51,1.94,5.01,3.96,7.43,5.98,2.99,2.42,5.98,4.93,8.89,7.6,2.42,2.1,4.85,4.28,7.27,6.47,78.8,72.57,128.25,176.58,128.25,292.15Z"/>
        <path class="cls-1" d="M1033.73,1342.75c-35.95,35.44-78.65,64.07-125.99,83.79-12.33-4.66-31.79-13.86-38.88-17.01-58.82-25.78-117.51-62.14-172.85-94.4,0,0,0-.09-.09-.09,2.27-5.73,3.48-11.96,3.48-18.41,0-28.93-23.44-52.37-52.28-52.37-4.29,0-8.48.48-12.53,1.53h-.09c-45.57-111.04-85.17-225.72-98.44-345.97,1.79-.74,45.44,33.46,59.08,44.93,48.26,40.41,102.49,78.7,156.39,111.19,11.63,7.04,56.09,30.48,56.41,31.03-.74,3.32-1.05,6.71-1.05,10.28,0,28.78,23.35,52.13,52.19,52.13,6.47,0,12.62-1.22,18.35-3.39.15.07,97.22,125.66,147.57,187,2.82,3.52.44.55,8.72,9.75Z"/>
        <path class="cls-1" d="M723.23,1455.6c-204.1-16.31-364.66-187.13-364.66-395.43,0-5.23.11-10.41.31-15.59,69.53,86.22,148.38,164.21,235.85,231.76-.48,1.38-.87,2.76-1.29,4.13-1.2,4.44-1.86,9.05-1.86,13.91,0,28.84,23.35,52.28,52.3,52.28,3.87,0,7.68-.42,11.3-1.29l68.05,110.23Z"/>
        <path class="cls-1" d="M816.1,1056.34c-4.12-2.18-132.13-72.41-201.63-130.6-7.52-6.22-38.47-33.13-52.13-48.57,5.09-8.4,8-18.18,8-28.69,0-27.56-20.12-50.51-46.47-54.79v-.08s1.86-57.86,4.36-59.56c6.79-4.69,13.74-9.21,20.85-13.58,29.09-17.62,60.69-31.52,94.07-41.22,1.37-.4,2.75-.81,4.12-1.13,6.55-1.7,13.09-3.31,19.72-4.85,31.52,132.54,147.33,379.02,149.1,383.07Z"/>
        <path class="cls-1" d="M609.85,1254.61c-71.13-55.19-139.75-114.91-196.79-184.99-8.4-10.34-47.03-62.54-49.61-70.47-.04-.13-.09-.28-.13-.44v-.02c11.68-75.09,44.43-143.22,91.99-198.13,2.95,2.38,14.52,12.18,15.46,13.93-5.97,8.81-12.05,22.48-12.05,34.02,0,28.05,20.86,51.32,47.84,55.04,14.8,121.88,56,238.82,103.3,351.06Z"/>
        <path class="cls-1" d="M877.59,1437.58c-38.23,12.45-78.96,19.32-121.3,19.56l-77.34-123.97,198.64,104.41Z"/>
        <path class="cls-1" d="M497.79,758.38c-3.8,37.78.07-.74-3.89,38.55l-18.7-17.71c7.26-7.24,14.78-14.19,22.59-20.84Z"/>
        <path class="cls-1" d="M1127.88,1196.73c-17.14,46.75-42.84,89.37-75.15,125.95l-.74-.83c-32.25-33.28-62.87-68.68-91.64-105.04-18.11-23.05-62.71-88.58-65.05-92.14,4.68,1.62,153.54,54.23,231.78,71.94l.81.13Z"/>
        <path class="cls-1" d="M1152,1060.25c0,38.06-5.33,74.84-15.35,109.67-.65.16-1.62.08-2.83-.08-42.19-9.62-85.02-19.96-126.23-33.22-12.28-3.88-87.04-29.98-100.05-38.55.24-2.1.4-4.2.4-6.38,0-28.85-23.36-52.13-52.13-52.13-5.25,0-10.26.73-15.03,2.18-1.05-.4-118.8-242.93-146.52-373.61,19.8-3.07,40.17-4.69,60.85-4.69,47.76,0,93.58,8.49,136.01,23.92,2.83.97,5.58,2.02,8.4,3.15,3.56,1.37,7.11,2.83,10.59,4.36,22.63,9.7,44.21,21.25,64.49,34.75,2.83,1.94,5.74,3.88,8.57,5.9,2.34,1.62,4.61,3.23,6.87,4.85,1.78,1.29,3.56,2.59,5.25,3.96,1.7,1.21,3.31,2.42,4.85,3.72,2.51,1.94,5.01,3.96,7.43,5.98,2.99,2.42,5.98,4.93,8.89,7.6,2.42,2.1,4.85,4.28,7.27,6.47,78.8,72.57,128.25,176.58,128.25,292.15Z"/>
        <path class="cls-1" d="M1033.73,1342.75c-35.95,35.44-78.65,64.07-125.99,83.79-12.33-4.66-31.79-13.86-38.88-17.01-58.82-25.78-117.51-62.14-172.85-94.4,0,0,0-.09-.09-.09,2.27-5.73,3.48-11.96,3.48-18.41,0-28.93-23.44-52.37-52.28-52.37-4.29,0-8.48.48-12.53,1.53h-.09c-45.57-111.04-85.17-225.72-98.44-345.97,1.79-.74,45.44,33.46,59.08,44.93,48.26,40.41,102.49,78.7,156.39,111.19,11.63,7.04,56.09,30.48,56.41,31.03-.74,3.32-1.05,6.71-1.05,10.28,0,28.78,23.35,52.13,52.19,52.13,6.47,0,12.62-1.22,18.35-3.39.15.07,97.22,125.66,147.57,187,2.82,3.52.44.55,8.72,9.75Z"/>
        <path class="cls-1" d="M723.23,1455.6c-204.1-16.31-364.66-187.13-364.66-395.43,0-5.23.11-10.41.31-15.59,69.53,86.22,148.38,164.21,235.85,231.76-.48,1.38-.87,2.76-1.29,4.13-1.2,4.44-1.86,9.05-1.86,13.91,0,28.84,23.35,52.28,52.3,52.28,3.87,0,7.68-.42,11.3-1.29l68.05,110.23Z"/>
        <path class="cls-1" d="M816.1,1056.34c-4.12-2.18-132.13-72.41-201.63-130.6-7.52-6.22-38.47-33.13-52.13-48.57,5.09-8.4,8-18.18,8-28.69,0-27.56-20.12-50.51-46.47-54.79v-.08s1.86-57.86,4.36-59.56c6.79-4.69,13.74-9.21,20.85-13.58,29.09-17.62,60.69-31.52,94.07-41.22,1.37-.4,2.75-.81,4.12-1.13,6.55-1.7,13.09-3.31,19.72-4.85,31.52,132.54,147.33,379.02,149.1,383.07Z"/>
        <path class="cls-1" d="M609.85,1254.61c-71.13-55.19-139.75-114.91-196.79-184.99-8.4-10.34-47.03-62.54-49.61-70.47-.04-.13-.09-.28-.13-.44v-.02c11.68-75.09,44.43-143.22,91.99-198.13,2.95,2.38,14.52,12.18,15.46,13.93-5.97,8.81-12.05,22.48-12.05,34.02,0,28.05,20.86,51.32,47.84,55.04,14.8,121.88,56,238.82,103.3,351.06Z"/>
        <path class="cls-1" d="M877.59,1437.58c-38.23,12.45-78.96,19.32-121.3,19.56l-77.34-123.97,198.64,104.41Z"/>
        <path class="cls-1" d="M497.79,758.38c-3.8,37.78.07-.74-3.89,38.55l-18.7-17.71c7.26-7.24,14.78-14.19,22.59-20.84Z"/>
        <path class="cls-1" d="M1127.88,1196.73c-17.14,46.75-42.84,89.37-75.15,125.95l-.74-.83c-32.25-33.28-62.87-68.68-91.64-105.04-18.11-23.05-62.71-88.58-65.05-92.14,4.68,1.62,153.54,54.23,231.78,71.94l.81.13Z"/>
      </g>
    </g>
    <path class="cls-1" d="M1224,472.18l-216,117v126h-1.12c-68.48-56.24-156.11-90-251.63-90s-182.83,33.63-251.25,89.69v-125.69l-216-45,468-171,468,99Z"/>
    <circle class="cls-1" cx="288" cy="544.18" r="10" transform="translate(-295.28 741.29) rotate(-80.78)"/>
    <path class="cls-1" d="M278.31,718.29c.63-7.97,4.62-19.38,4.62-19.38l-18.22,14.83c13.24-22.73,32.01-59.9,33.29-87.36,1.15-24.77-9.93-79.79-9.93-79.79,0,0,21.69,43.01,26.44,63.11,9.45,39.97-6.56,81.2-36.2,108.59Z"/>
    <g>
      <path d="M1274,728.65h-48.11v-25.86h127.48v25.86h-48.57v142.64h-30.8v-142.64Z"/>
      <path d="M1403.5,702.79v98.24c0,32.92,13.66,48.27,34.52,48.27,22.17,0,35.49-15.19,35.49-48.27v-98.24h30.8v96.25c0,51.9-26.71,75-67.41,75s-64.21-21.81-64.21-74.82v-96.43h30.8Z"/>
      <path d="M1571.75,728.65h-48.11v-25.86h127.48v25.86h-48.57v142.64h-30.8v-142.64Z"/>
      <path d="M1813.23,785.35c0,56.42-34.21,88.69-80.63,88.69s-77.73-36.36-77.73-85.7,32.69-88.3,80.22-88.3,78.14,37.14,78.14,85.31ZM1687.38,787.71c0,34.38,17.37,61.7,46.79,61.7s46.56-27.67,46.56-62.92c0-31.8-15.77-61.83-46.48-61.83s-46.87,28.44-46.87,63.05Z"/>
      <path d="M1839.63,705.1c11.7-2.13,28.8-3.62,46.68-3.62,24.14,0,40.62,4.07,51.96,13.58,9.28,7.71,14.52,19.39,14.52,33.84,0,21.7-14.75,36.5-30.65,42.1v.71c12.21,4.62,19.32,16.24,23.5,32.61,5.36,21.08,9.95,40.41,13.31,46.97h-31.61c-2.62-4.88-6.64-18.79-11.35-39.75-4.83-21.97-12.82-29.09-30.32-29.49h-15.5v69.25h-30.55v-166.19ZM1870.18,779.47h18.21c20.88,0,33.73-11.01,33.73-27.75,0-18.33-12.92-26.95-32.82-27.02-9.77,0-15.99.76-19.13,1.57v53.21Z"/>
      <path d="M2012.67,702.79v168.5h-30.8v-168.5h30.8Z"/>
      <path d="M2081.66,823.66l-14.38,47.63h-31.82l54.07-168.5h39.2l54.75,168.5h-33.05l-15.25-47.63h-53.53ZM2130.1,800.4l-13.28-41.52c-3.24-10.44-6.02-21.9-8.56-31.68h-.55c-2.45,9.88-5.03,21.55-8,31.57l-13.01,41.62h43.41Z"/>
      <path d="M1241.64,1005.1c13.72-2.23,30.88-3.62,49.09-3.62,31.61,0,53.15,6.57,68.67,19.47,16.41,13.32,26.41,33.41,26.41,62,0,30.19-10.31,52.53-26.23,67.04-16.91,15.18-43.57,22.93-76.32,22.93-17.91,0-31.48-.93-41.62-2.21v-165.61ZM1272.4,1147.81c4.31.74,10.86.82,17.16.82,39.97.21,63.75-21.96,63.75-64.62.16-37.17-21.24-58.59-59.91-58.59-9.65,0-16.53.86-20.99,1.8v120.59Z"/>
      <path d="M1443.18,1002.79v168.5h-30.8v-168.5h30.8Z"/>
      <path d="M1477.8,1137.73c9.93,5.72,25.03,10.73,40.72,10.73,19.64,0,30.63-9.23,30.63-23,0-12.72-8.53-20.22-29.86-27.96-27.84-9.87-45.62-24.81-45.62-48.95,0-27.6,23.08-48.38,59.63-48.38,18.27,0,31.62,3.88,40.39,8.33l-7.36,24.83c-6.09-3.19-17.84-8-33.66-8-19.54,0-27.83,10.4-27.83,20.3,0,12.92,9.75,19,32.23,27.59,29.27,11.18,43.34,25.87,43.34,50.08,0,27.1-20.42,50.62-63.89,50.62-17.83,0-36.34-5.07-45.55-10.71l6.81-25.48Z"/>
      <path d="M1729.11,1166.3c-7.29,3.64-23.33,7.61-43.73,7.61-53.45,0-86.01-33.57-86.01-84.88,0-55.4,38.69-88.87,90.2-88.87,20.26,0,34.59,4.11,40.8,7.45l-6.68,24.54c-7.85-3.57-19.07-6.6-32.86-6.6-34.34,0-59.07,21.45-59.07,61.96,0,37.13,21.64,60.66,58.67,60.66,12.45,0,25.45-2.48,33.58-6.11l5.09,24.24Z"/>
      <path d="M1849.43,1096.54h-63.5v49.43h71v25.32h-101.8v-168.5h98.08v25.32h-67.28v43.32h63.5v25.11Z"/>
      <path d="M1883.88,1171.29v-168.5h35.18l43.53,72.32c11.09,18.61,20.91,38.18,28.67,56.48l.61-.16c-2.18-22.38-2.76-44.08-2.76-69.83v-58.8h28.46v168.5h-31.9l-43.97-74.12c-10.75-18.49-21.93-39.02-30.21-58.13l-.79.16c1.23,21.89,1.63,44.14,1.63,71.81v60.28h-28.46Z"/>
      <path d="M2085.25,1028.65h-48.11v-25.86h127.48v25.86h-48.57v142.64h-30.8v-142.64Z"/>
      <path d="M2278.42,1096.54h-63.5v49.43h71v25.32h-101.8v-168.5h98.08v25.32h-67.28v43.32h63.5v25.11Z"/>
    </g>
    <g>
      <path d="M1359.19,1282.04v84.25h-10.88v-84.25h10.88Z"/>
      <path d="M1419.19,1291.29h-25.62v-9.25h62.38v9.25h-25.75v75h-11v-75Z"/>
      <path d="M1533.94,1326.79h-32.75v30.38h36.5v9.12h-47.38v-84.25h45.5v9.12h-34.62v26.62h32.75v9Z"/>
      <path d="M1635.69,1363.54c-4,2-12,4-22.25,4-23.75,0-41.62-15-41.62-42.62s17.88-44.25,44-44.25c10.5,0,17.12,2.25,20,3.75l-2.62,8.88c-4.12-2-10-3.5-17-3.5-19.75,0-32.88,12.62-32.88,34.75,0,20.62,11.88,33.88,32.38,33.88,6.62,0,13.38-1.38,17.75-3.5l2.25,8.62Z"/>
      <path d="M1750.93,1328.42v8.12h-30.88v-8.12h30.88Z"/>
      <path d="M1851.56,1282.04v49.88c0,18.88,8.38,26.88,19.62,26.88,12.5,0,20.5-8.25,20.5-26.88v-49.88h11v49.12c0,25.88-13.62,36.5-31.88,36.5-17.25,0-30.25-9.88-30.25-36v-49.62h11Z"/>
      <path d="M1946.56,1282.04h45.38v9.12h-34.5v28h31.88v9h-31.88v38.12h-10.88v-84.25Z"/>
      <path d="M2032.43,1283.04c5.25-.88,12.12-1.62,20.88-1.62,10.75,0,18.62,2.5,23.62,7,4.62,4,7.38,10.12,7.38,17.62s-2.25,13.62-6.5,18c-5.75,6.12-15.12,9.25-25.75,9.25-3.25,0-6.25-.12-8.75-.75v33.75h-10.88v-83.25ZM2043.31,1323.67c2.38.62,5.38.88,9,.88,13.12,0,21.12-6.38,21.12-18s-7.88-16.5-19.88-16.5c-4.75,0-8.38.38-10.25.88v32.75Z"/>
      <path d="M2127.06,1339.79l-8.75,26.5h-11.25l28.62-84.25h13.12l28.75,84.25h-11.62l-9-26.5h-29.88ZM2154.68,1331.29l-8.25-24.25c-1.88-5.5-3.12-10.5-4.38-15.38h-.25c-1.25,5-2.62,10.12-4.25,15.25l-8.25,24.38h25.38Z"/>
    </g>
  </g>
</svg>