<?xml version="1.0" encoding="UTF-8"?>
<svg xmlns="http://www.w3.org/2000/svg" viewBox="0 0 864 1422">
  <defs>
    <style>
      .cls-1 {
        fill: #15cbc7;
      }
    </style>
  </defs>
  <g id="Brasão">
    <polygon class="cls-1" points="29.79 1073.18 29.79 1153.63 432.07 1395 834.35 1153.63 834.35 1073.18 432.07 1314.54 29.79 1073.18"/>
  </g>
  <g id="QI">
    <path class="cls-1" d="M421.76,943.96c0,10.01-8.12,18.13-18.15,18.13s-18.15-8.12-18.15-18.13,8.14-18.15,18.15-18.15,18.15,8.12,18.15,18.15Z"/>
    <circle class="cls-1" cx="457.4" cy="984.78" r="23.98" transform="translate(-606.13 1203.69) rotate(-76.72)"/>
    <path class="cls-1" d="M598.4,1032.82l-96.4-192.81c-1.42-2.82-2.17-5.99-2.17-9.16v-126.51c0-.53-.05-1.05-.13-1.56h-135.4c-.08.51-.13,1.03-.13,1.56v126.51c0,3.16-.75,6.33-2.17,9.16l-96.4,192.81c-1.63,3.27-1.46,7.09.46,10.2,1.93,3.12,5.27,4.98,8.93,4.98h314.02c3.66,0,7-1.86,8.93-4.98,1.92-3.11,2.09-6.93.46-10.2ZM456.47,819.72c6.6,0,11.95,5.35,11.95,11.95s-5.35,11.94-11.95,11.94-11.94-5.35-11.94-11.94,5.35-11.95,11.94-11.95ZM422.9,788.99c5.02,0,9.1,4.07,9.1,9.1s-4.08,9.11-9.1,9.11-9.11-4.08-9.11-9.11,4.08-9.1,9.11-9.1ZM420.47,848.44c8.72,0,15.78,7.06,15.78,15.78s-7.06,15.78-15.78,15.78-15.78-7.07-15.78-15.78,7.06-15.78,15.78-15.78ZM277.23,1034.79l81.93-163.87c27.13,51.27,137.07,26.31,150.22,18.21l77.38,145.66h-309.53ZM598.4,1032.82l-96.4-192.81c-1.42-2.82-2.17-5.99-2.17-9.16v-126.51c0-.53-.05-1.05-.13-1.56h-135.4c-.08.51-.13,1.03-.13,1.56v126.51c0,3.16-.75,6.33-2.17,9.16l-96.4,192.81c-1.63,3.27-1.46,7.09.46,10.2,1.93,3.12,5.27,4.98,8.93,4.98h314.02c3.66,0,7-1.86,8.93-4.98,1.92-3.11,2.09-6.93.46-10.2ZM456.47,819.72c6.6,0,11.95,5.35,11.95,11.95s-5.35,11.94-11.95,11.94-11.94-5.35-11.94-11.94,5.35-11.95,11.94-11.95ZM422.9,788.99c5.02,0,9.1,4.07,9.1,9.1s-4.08,9.11-9.1,9.11-9.11-4.08-9.11-9.11,4.08-9.1,9.11-9.1ZM420.47,848.44c8.72,0,15.78,7.06,15.78,15.78s-7.06,15.78-15.78,15.78-15.78-7.07-15.78-15.78,7.06-15.78,15.78-15.78ZM277.23,1034.79l81.93-163.87c27.13,51.27,137.07,26.31,150.22,18.21l77.38,145.66h-309.53ZM598.4,1032.82l-96.4-192.81c-1.42-2.82-2.17-5.99-2.17-9.16v-126.51c0-.53-.05-1.05-.13-1.56h-135.4c-.08.51-.13,1.03-.13,1.56v126.51c0,3.16-.75,6.33-2.17,9.16l-96.4,192.81c-1.63,3.27-1.46,7.09.46,10.2,1.93,3.12,5.27,4.98,8.93,4.98h314.02c3.66,0,7-1.86,8.93-4.98,1.92-3.11,2.09-6.93.46-10.2ZM456.47,819.72c6.6,0,11.95,5.35,11.95,11.95s-5.35,11.94-11.95,11.94-11.94-5.35-11.94-11.94,5.35-11.95,11.94-11.95ZM422.9,788.99c5.02,0,9.1,4.07,9.1,9.1s-4.08,9.11-9.1,9.11-9.11-4.08-9.11-9.11,4.08-9.1,9.11-9.1ZM420.47,848.44c8.72,0,15.78,7.06,15.78,15.78s-7.06,15.78-15.78,15.78-15.78-7.07-15.78-15.78,7.06-15.78,15.78-15.78ZM277.23,1034.79l81.93-163.87c27.13,51.27,137.07,26.31,150.22,18.21l77.38,145.66h-309.53ZM598.4,1032.82l-96.4-192.81c-1.42-2.82-2.17-5.99-2.17-9.16v-126.51c0-.53-.05-1.05-.13-1.56h-135.4c-.08.51-.13,1.03-.13,1.56v126.51c0,3.16-.75,6.33-2.17,9.16l-96.4,192.81c-1.63,3.27-1.46,7.09.46,10.2,1.93,3.12,5.27,4.98,8.93,4.98h314.02c3.66,0,7-1.86,8.93-4.98,1.92-3.11,2.09-6.93.46-10.2ZM456.47,819.72c6.6,0,11.95,5.35,11.95,11.95s-5.35,11.94-11.95,11.94-11.94-5.35-11.94-11.94,5.35-11.95,11.94-11.95ZM422.9,788.99c5.02,0,9.1,4.07,9.1,9.1s-4.08,9.11-9.1,9.11-9.11-4.08-9.11-9.11,4.08-9.1,9.11-9.1ZM420.47,848.44c8.72,0,15.78,7.06,15.78,15.78s-7.06,15.78-15.78,15.78-15.78-7.07-15.78-15.78,7.06-15.78,15.78-15.78ZM277.23,1034.79l81.93-163.87c27.13,51.27,137.07,26.31,150.22,18.21l77.38,145.66h-309.53ZM432.07,590.44L29.79,349.07v643.65l402.28,241.37,402.28-241.37V349.07l-402.28,241.37ZM606.44,1048.28c-3.76,6.09-10.27,9.72-17.43,9.72h-314.02c-7.16,0-13.67-3.63-17.43-9.72-3.76-6.08-4.1-13.54-.9-19.94l96.4-192.8c.73-1.45,1.11-3.07,1.11-4.69v-126.51c0-.53.04-1.04.08-1.56h-4.51c-4.85,0-8.78-3.93-8.78-8.78v-7c0-2.21,1.79-4,4-4h174.08c2.21,0,4,1.79,4,4v7c0,4.85-3.93,8.78-8.78,8.78h-4.51c.04.52.08,1.03.08,1.56v126.51c0,1.62.38,3.24,1.11,4.69l96.4,192.8c3.2,6.4,2.86,13.86-.9,19.94ZM502,840.01c-1.42-2.82-2.17-5.99-2.17-9.16v-126.51c0-.53-.05-1.05-.13-1.56h-135.4c-.08.51-.13,1.03-.13,1.56v126.51c0,3.16-.75,6.33-2.17,9.16l-96.4,192.81c-1.63,3.27-1.46,7.09.46,10.2,1.93,3.12,5.27,4.98,8.93,4.98h314.02c3.66,0,7-1.86,8.93-4.98,1.92-3.11,2.09-6.93.46-10.2l-96.4-192.81ZM456.47,819.72c6.6,0,11.95,5.35,11.95,11.95s-5.35,11.94-11.95,11.94-11.94-5.35-11.94-11.94,5.35-11.95,11.94-11.95ZM422.9,788.99c5.02,0,9.1,4.07,9.1,9.1s-4.08,9.11-9.1,9.11-9.11-4.08-9.11-9.11,4.08-9.1,9.11-9.1ZM420.47,848.44c8.72,0,15.78,7.06,15.78,15.78s-7.06,15.78-15.78,15.78-15.78-7.07-15.78-15.78,7.06-15.78,15.78-15.78ZM277.23,1034.79l81.93-163.87c27.13,51.27,137.07,26.31,150.22,18.21l77.38,145.66h-309.53ZM598.4,1032.82l-96.4-192.81c-1.42-2.82-2.17-5.99-2.17-9.16v-126.51c0-.53-.05-1.05-.13-1.56h-135.4c-.08.51-.13,1.03-.13,1.56v126.51c0,3.16-.75,6.33-2.17,9.16l-96.4,192.81c-1.63,3.27-1.46,7.09.46,10.2,1.93,3.12,5.27,4.98,8.93,4.98h314.02c3.66,0,7-1.86,8.93-4.98,1.92-3.11,2.09-6.93.46-10.2ZM456.47,819.72c6.6,0,11.95,5.35,11.95,11.95s-5.35,11.94-11.95,11.94-11.94-5.35-11.94-11.94,5.35-11.95,11.94-11.95ZM422.9,788.99c5.02,0,9.1,4.07,9.1,9.1s-4.08,9.11-9.1,9.11-9.11-4.08-9.11-9.11,4.08-9.1,9.11-9.1ZM420.47,848.44c8.72,0,15.78,7.06,15.78,15.78s-7.06,15.78-15.78,15.78-15.78-7.07-15.78-15.78,7.06-15.78,15.78-15.78ZM277.23,1034.79l81.93-163.87c27.13,51.27,137.07,26.31,150.22,18.21l77.38,145.66h-309.53ZM598.4,1032.82l-96.4-192.81c-1.42-2.82-2.17-5.99-2.17-9.16v-126.51c0-.53-.05-1.05-.13-1.56h-135.4c-.08.51-.13,1.03-.13,1.56v126.51c0,3.16-.75,6.33-2.17,9.16l-96.4,192.81c-1.63,3.27-1.46,7.09.46,10.2,1.93,3.12,5.27,4.98,8.93,4.98h314.02c3.66,0,7-1.86,8.93-4.98,1.92-3.11,2.09-6.93.46-10.2ZM456.47,819.72c6.6,0,11.95,5.35,11.95,11.95s-5.35,11.94-11.95,11.94-11.94-5.35-11.94-11.94,5.35-11.95,11.94-11.95ZM422.9,788.99c5.02,0,9.1,4.07,9.1,9.1s-4.08,9.11-9.1,9.11-9.11-4.08-9.11-9.11,4.08-9.1,9.11-9.1ZM420.47,848.44c8.72,0,15.78,7.06,15.78,15.78s-7.06,15.78-15.78,15.78-15.78-7.07-15.78-15.78,7.06-15.78,15.78-15.78ZM277.23,1034.79l81.93-163.87c27.13,51.27,137.07,26.31,150.22,18.21l77.38,145.66h-309.53Z"/>
  </g>
  <g id="ITEC">
    <path class="cls-1" d="M613.5,209.37c0,17.41-2.44,34.22-7.02,50.15-.3.07-.74.04-1.29-.04-19.29-4.4-38.88-9.13-57.73-15.19-5.62-1.77-39.8-13.71-45.76-17.63.11-.96.18-1.92.18-2.92,0-13.19-10.68-23.84-23.84-23.84-2.4,0-4.69.33-6.87,1-.48-.18-54.33-111.1-67.01-170.86,9.05-1.4,18.37-2.14,27.83-2.14,21.84,0,42.8,3.88,62.2,10.94,1.29.44,2.55.92,3.84,1.44,1.63.63,3.25,1.29,4.84,2,10.35,4.44,20.22,9.72,29.49,15.89,1.29.89,2.62,1.77,3.92,2.7,1.07.74,2.11,1.48,3.14,2.22.81.59,1.63,1.18,2.4,1.81.78.55,1.52,1.11,2.22,1.7,1.15.89,2.29,1.81,3.4,2.73,1.37,1.11,2.73,2.25,4.07,3.47,1.11.96,2.22,1.96,3.33,2.96,36.04,33.19,58.65,80.76,58.65,133.61Z"/>
    <path class="cls-1" d="M560.88,339.72c-16.19,15.93-35.33,28.87-56.58,37.88h-.04c-5.25-1.7-16.15-6.87-19.81-8.5-26.91-11.79-53.74-28.42-79.06-43.17,0,0,0-.04-.04-.04,1.03-2.62,1.59-5.47,1.59-8.43,0-13.23-10.72-23.95-23.91-23.95-1.96,0-3.88.22-5.73.7h-.04c-20.84-50.78-38.95-103.23-45.02-158.22.81-.33,20.77,15.3,27.02,20.55,22.06,18.48,46.86,36,71.52,50.86,5.32,3.22,25.65,13.93,25.8,14.19-.33,1.52-.48,3.07-.48,4.69,0,13.16,10.68,23.84,23.88,23.84,2.96,0,5.77-.55,8.39-1.55.07.04,44.46,57.47,67.49,85.52,1.4,1.74,0,0,5.03,5.62Z"/>
    <path class="cls-1" d="M417.95,390.36c-92.73-7.13-165.91-83.86-167.43-178.07-.04-.04-.04-.07,0-.15-.04-.04-.04-.07,0-.11.04-3.36.18-6.73.44-10.13,31.86,39.55,68,75.32,108.11,106.29-.22.63-.41,1.26-.59,1.88-.55,2.03-.85,4.14-.85,6.36,0,13.19,10.68,23.91,23.91,23.91,1.77,0,3.51-.18,5.17-.59l31.23,50.6Z"/>
    <path class="cls-1" d="M460.31,207.58c-1.88-1-60.43-33.12-92.21-59.73-3.44-2.85-17.59-15.15-23.84-22.21,2.33-3.84,3.66-8.32,3.66-13.12,0-12.6-9.2-23.1-21.25-25.06v-.04s.85-26.46,2-27.24c3.1-2.14,6.28-4.21,9.54-6.21,13.31-8.06,27.76-14.41,43.02-18.85.63-.18,1.26-.37,1.88-.52,2.99-.78,5.99-1.52,9.02-2.22,14.41,60.61,67.38,173.34,68.19,175.19Z"/>
    <path class="cls-1" d="M365.99,298.26c-32.52-25.24-63.9-52.56-90-84.6-3.84-4.73-21.51-28.61-22.69-32.23-.15-.48-.26-1.03-.33-1.66v-.07c-1.11-9.76,8.28-33.71,11.86-42.17,7.06-16.63,17.22-34.56,30.16-47.2l.04.04c.37.26,6.88,5.73,7.36,6.61-2.73,4.03-5.51,10.28-5.51,15.56,0,12.82,9.54,23.47,21.88,25.17,6.76,55.73,25.61,109.21,47.23,160.55Z"/>
    <path class="cls-1" d="M602.53,271.72c-7.76,21.21-19.37,40.58-34,57.25-.11.04-.22.04-.33.04-14.75-15.23-28.75-31.42-41.91-48.05-8.28-10.53-28.68-40.51-29.75-42.13,2.14.74,70.22,24.8,106,32.89Z"/>
    <path class="cls-1" d="M488.43,381.93c-17.48,5.69-36.11,8.83-55.48,8.94l-35.37-56.7,90.85,47.75Z"/>
    <path class="cls-1" d="M312.96,88.95l-8.81-8.34-.04-.04.92-.89,3.81-3.66c1.4-1.26,4.43-3.93,5.95-5.23l-1.83,18.15Z"/>
  </g>
</svg>