<?xml version="1.0" encoding="UTF-8"?>
<svg xmlns="http://www.w3.org/2000/svg" viewBox="0 0 2556.6 1422">
  <defs>
    <style>
      .cls-1 {
        fill: #2357a0;
      }
    </style>
  </defs>
  <g id="Brasão">
    <polygon class="cls-1" points="252 758.85 611.96 1126.15 432.07 1234.09 252 1126.05 252 758.85"/>
    <polygon class="cls-1" points="834.35 349.07 834.35 992.72 684 1082.93 684 569.98 612 613.19 612 974.85 252 613.18 180 569.98 180 1082.85 29.79 992.72 29.79 349.07 432.07 590.44 834.35 349.07"/>
    <g>
      <path d="M900,992.98v-216.3h31.2v216.3h-31.2Z"/>
      <path d="M947.32,776.68l33.6.03,62.14,173.73,62.84-173.72,33.19-.04-72.6,200.7c-2.4,6.4-5.45,11.1-9.15,14.1-3.7,3-8.45,4.5-14.25,4.5s-10.45-1.45-13.95-4.35c-3.5-2.9-6.45-7.65-8.85-14.25l-72.98-200.7Z"/>
      <path d="M1296.9,992.98h-83.7c-10,0-18.4-1.2-25.2-3.6-6.8-2.4-12.85-6.4-18.15-12-5.3-5.6-8.95-11.45-10.95-17.55-2-6.1-3-14.45-3-25.05v-104.1c0-20.6,6.7-35.6,20.1-45,5.2-3.6,10.7-6,16.5-7.2,5.8-1.2,14.6-1.8,26.4-1.8h78.6v31.5h-91.2c-5.4,0-9.95,2.25-13.65,6.75-3.7,4.5-5.55,10.05-5.55,16.65v36.9h110.4v31.5h-110.4v42.3c0,5,2.1,9.5,6.3,13.5,3.8,3.2,7.5,5.1,11.1,5.7h92.4v31.5Z"/>
      <path d="M1469.7,992.98h-81c-18.4,0-32.5-4.7-42.3-14.1-9.8-9.4-14.7-22.9-14.7-40.5v-161.7h31.2v161.4c0,8.8,1.8,14.9,5.4,18.3,3.6,3.4,10.2,5.1,19.8,5.1h81.6v31.5Z"/>
      <path d="M1453.21,992.98l71.7-195.9c3.2-8.6,6.55-14.55,10.05-17.85,3.5-3.3,8.35-4.95,14.55-4.95,6.8,0,12,1.6,15.6,4.8,3.6,3.2,7.1,9.2,10.5,18l71.4,195.9-33.82.08-16.11-45.08h-93.85l-16.46,44.99h-33.55ZM1549.45,818.18l-34.7,98.3h70.52l-35.82-98.3Z"/>
      <path d="M1659.3,992.98v-185.1c0-23,9.38-34.5,28.13-34.5,10.37,0,17.76,1.71,22.14,5.11,4.39,3.4,8.08,10.51,11.08,21.33l46.16,159.53,47.12-159.53c3.19-10.42,6.89-17.42,11.08-21.03,4.19-3.6,10.67-5.41,19.46-5.41,20.76,0,31.13,11.5,31.13,34.5v185.1h-31.2v-185.1l-48.3,161.4c-2.8,9.8-6.25,16.65-10.35,20.55-4.1,3.9-9.75,5.85-16.95,5.85-8.8,0-15.2-1.8-19.2-5.4-4-3.6-7.6-10.6-10.8-21l-48.3-161.4v185.1h-31.2Z"/>
      <path d="M2055,992.98h-83.7c-10,0-18.4-1.2-25.2-3.6-6.8-2.4-12.85-6.4-18.15-12-5.3-5.6-8.95-11.45-10.95-17.55-2-6.1-3-14.45-3-25.05v-104.1c0-20.6,6.7-35.6,20.1-45,5.2-3.6,10.7-6,16.5-7.2,5.8-1.2,14.6-1.8,26.4-1.8h78.6v31.5h-91.2c-5.4,0-9.95,2.25-13.65,6.75-3.7,4.5-5.55,10.05-5.55,16.65v36.9h110.4v31.5h-110.4v42.3c0,5,2.1,9.5,6.3,13.5,3.8,3.2,7.5,5.1,11.1,5.7h92.4v31.5Z"/>
      <path d="M2089.8,992.98v-186.3c0-11,2.15-18.95,6.46-23.85,4.31-4.9,11.28-7.35,20.91-7.35,7.01,0,12.58,1.55,16.69,4.65,4.11,3.1,7.87,8.55,11.28,16.35l65.26,158.68v-178.48h31.2v190.5c0,8.4-2.58,15.3-7.74,20.7-5.16,5.4-11.71,8.1-19.65,8.1-12.51,0-21.73-7.46-27.68-22.38l-65.53-155.84v175.22h-31.2Z"/>
      <path d="M2262.3,808.18v-31.5h125.1v31.5h-47.1v184.8h-31.2v-184.8h-46.8Z"/>
      <path d="M2467.2,992.98c-15.2,0-26.1-1-32.7-3-6.6-2-12.9-6.3-18.9-12.9-9.4-10-14.1-24.9-14.1-44.7v-95.1c0-10.8,1.05-19.45,3.15-25.95,2.1-6.5,5.9-12.85,11.4-19.05,5.5-6.2,11.7-10.35,18.6-12.45,6.9-2.1,17.75-3.15,32.55-3.15h23.4c15.4,0,26.25,1,32.55,3,6.3,2,12.65,6.3,19.05,12.9,9.6,10.2,14.4,25.1,14.4,44.7v95.1c0,10.8-1,19.45-3,25.95-2,6.5-5.85,12.85-11.55,19.05-5.7,6.2-12,10.35-18.9,12.45-6.9,2.1-17.75,3.15-32.55,3.15h-23.4ZM2432.7,933.88c0,10.8,2,18.1,6,21.9,4,3.8,11.9,5.7,23.7,5.7h33.3c11.6,0,19.45-1.85,23.55-5.55,4.1-3.7,6.15-10.95,6.15-21.75v-98.4c0-10.4-2.1-17.6-6.3-21.6-4.2-4-12-6-23.4-6h-33.3c-11.4,0-19.2,1.9-23.4,5.7-4.2,3.8-6.3,11.1-6.3,21.9v98.1Z"/>
    </g>
    <path class="cls-1" d="M2305.87,416.29c-2.75-2.92-7.63-4.38-14.63-4.38h-58.75v127.75h59.25c12.17,0,18.25-7.16,18.25-21.5v-85.75c0-7.83-1.37-13.21-4.12-16.12ZM2305.87,416.29c-2.75-2.92-7.63-4.38-14.63-4.38h-58.75v127.75h59.25c12.17,0,18.25-7.16,18.25-21.5v-85.75c0-7.83-1.37-13.21-4.12-16.12ZM2038.95,420.25l-28.91,81.91h58.76l-29.85-81.91ZM2305.87,416.29c-2.75-2.92-7.63-4.38-14.63-4.38h-58.75v127.75h59.25c12.17,0,18.25-7.16,18.25-21.5v-85.75c0-7.83-1.37-13.21-4.12-16.12ZM2305.87,416.29c-2.75-2.92-7.63-4.38-14.63-4.38h-58.75v127.75h59.25c12.17,0,18.25-7.16,18.25-21.5v-85.75c0-7.83-1.37-13.21-4.12-16.12ZM2038.95,420.25l-28.91,81.91h58.76l-29.85-81.91ZM2038.95,420.25l-28.91,81.91h58.76l-29.85-81.91ZM2305.87,416.29c-2.75-2.92-7.63-4.38-14.63-4.38h-58.75v127.75h59.25c12.17,0,18.25-7.16,18.25-21.5v-85.75c0-7.83-1.37-13.21-4.12-16.12ZM2305.87,416.29c-2.75-2.92-7.63-4.38-14.63-4.38h-58.75v127.75h59.25c12.17,0,18.25-7.16,18.25-21.5v-85.75c0-7.83-1.37-13.21-4.12-16.12ZM2038.95,420.25l-28.91,81.91h58.76l-29.85-81.91ZM2038.95,420.25l-28.91,81.91h58.76l-29.85-81.91ZM2305.87,416.29c-2.75-2.92-7.63-4.38-14.63-4.38h-58.75v127.75h59.25c12.17,0,18.25-7.16,18.25-21.5v-85.75c0-7.83-1.37-13.21-4.12-16.12ZM2305.87,416.29c-2.75-2.92-7.63-4.38-14.63-4.38h-58.75v127.75h59.25c12.17,0,18.25-7.16,18.25-21.5v-85.75c0-7.83-1.37-13.21-4.12-16.12ZM2038.95,420.25l-28.91,81.91h58.76l-29.85-81.91ZM1188,349.07v253.93h1368v-253.93h-1368ZM1387.51,515.41c0,9-.84,16.21-2.5,21.63-1.67,5.41-4.88,10.71-9.63,15.87-4.75,5.17-10,8.63-15.75,10.38s-14.79,2.62-27.12,2.62h-19.5c-12.67,0-21.75-.83-27.25-2.5-5.5-1.66-10.75-5.25-15.75-10.75-7.84-8.33-11.75-20.75-11.75-37.25v-79.25c0-9,.87-16.21,2.62-21.62,1.75-5.42,4.92-10.71,9.5-15.88,4.59-5.16,9.75-8.62,15.5-10.37s14.79-2.63,27.13-2.63h19.5c12.83,0,21.87.84,27.12,2.5,5.25,1.67,10.54,5.25,15.88,10.75,8,8.5,12,20.92,12,37.25v79.25ZM1538.01,411.91h-77.75c-3,.33-5.75,1.33-8.25,2.98-4.5,3.32-6.75,8.38-6.75,15.18v32.84h92.5v26.25h-92.5v76.75h-26v-132.75c0-17.66,4.75-30.5,14.25-38.5,4.33-3.66,8.96-6.08,13.87-7.25,4.92-1.16,12.71-1.75,23.38-1.75h67.25v26.25ZM1585.26,565.91h-26v-180.25h26v180.25ZM1734.26,411.91h-72.5c-12.5,0-18.75,6.25-18.75,18.75v89.75c0,5.5,1.75,10.09,5.25,13.75,3.5,3.67,8,5.5,13.5,5.5h72v26.25h-77.25c-11,0-20.34-4.25-28-12.75-7.67-8.5-11.5-18.66-11.5-30.5v-92.5c0-13.33,3.75-24.08,11.25-32.25,7.5-8.16,17.5-12.25,30-12.25h76v26.25ZM1786.75,565.91h-26v-180.25h26v180.25ZM1945,544.41c0,7-2.15,12.75-6.45,17.25-4.3,4.5-9.76,6.75-16.37,6.75-10.42,0-18.11-6.21-23.07-18.65l-54.61-129.87v146.02h-26v-155.25c0-9.16,1.79-15.79,5.39-19.87,3.59-4.09,9.4-6.13,17.42-6.13,5.84,0,10.48,1.29,13.91,3.88,3.42,2.58,6.55,7.12,9.39,13.62l54.39,132.23v-148.73h26v158.75ZM2092.06,565.98l-13.43-37.57h-78.2l-13.72,37.49h-27.96s59.75-163.24,59.75-163.24c2.66-7.16,5.45-12.12,8.37-14.87,2.92-2.75,6.96-4.13,12.13-4.13,5.66,0,10,1.34,13,4,3,2.67,5.91,7.67,8.75,15l59.49,163.25-28.18.07ZM2335.99,519.91c0,13-4.08,23.92-12.25,32.75-8.16,8.84-18.33,13.25-30.5,13.25h-86.75v-180.25h91.5c11,0,20.09,3.92,27.25,11.75,7.17,7.84,10.75,17.84,10.75,30v92.5ZM2485.74,411.91h-76c-4.5,0-8.29,1.88-11.37,5.63-3.09,3.75-4.63,8.37-4.63,13.87v30.75h92v26.25h-92v35.25c0,4.17,1.75,7.92,5.25,11.25,3.16,2.67,6.25,4.25,9.25,4.75h77v26.25h-69.75c-8.34,0-15.34-1-21-3-5.67-2-10.71-5.33-15.12-10-4.42-4.66-7.47-9.54-9.13-14.62-1.67-5.09-2.5-12.04-2.5-20.88v-86.75c0-17.16,5.58-29.66,16.75-37.5,4.33-3,8.91-5,13.75-6,4.83-1,12.16-1.5,22-1.5h65.5v26.25ZM2291.24,411.91h-58.75v127.75h59.25c12.17,0,18.25-7.16,18.25-21.5v-85.75c0-7.83-1.37-13.21-4.12-16.12-2.75-2.92-7.63-4.38-14.63-4.38ZM2010.04,502.16h58.76l-29.85-81.91-28.91,81.91ZM1336.76,411.91h-27.75c-9.5,0-16,1.59-19.5,4.75-3.5,3.17-5.25,9.25-5.25,18.25v81.75c0,9,1.66,15.09,5,18.25,3.33,3.17,9.91,4.75,19.75,4.75h27.75c9.66,0,16.21-1.54,19.62-4.62,3.42-3.09,5.13-9.13,5.13-18.13v-82c0-8.66-1.75-14.66-5.25-18-3.5-3.33-10-5-19.5-5ZM2038.95,420.25l-28.91,81.91h58.76l-29.85-81.91ZM2305.87,416.29c-2.75-2.92-7.63-4.38-14.63-4.38h-58.75v127.75h59.25c12.17,0,18.25-7.16,18.25-21.5v-85.75c0-7.83-1.37-13.21-4.12-16.12ZM2305.87,416.29c-2.75-2.92-7.63-4.38-14.63-4.38h-58.75v127.75h59.25c12.17,0,18.25-7.16,18.25-21.5v-85.75c0-7.83-1.37-13.21-4.12-16.12ZM2038.95,420.25l-28.91,81.91h58.76l-29.85-81.91ZM2038.95,420.25l-28.91,81.91h58.76l-29.85-81.91ZM2305.87,416.29c-2.75-2.92-7.63-4.38-14.63-4.38h-58.75v127.75h59.25c12.17,0,18.25-7.16,18.25-21.5v-85.75c0-7.83-1.37-13.21-4.12-16.12ZM2305.87,416.29c-2.75-2.92-7.63-4.38-14.63-4.38h-58.75v127.75h59.25c12.17,0,18.25-7.16,18.25-21.5v-85.75c0-7.83-1.37-13.21-4.12-16.12ZM2038.95,420.25l-28.91,81.91h58.76l-29.85-81.91ZM2038.95,420.25l-28.91,81.91h58.76l-29.85-81.91ZM2305.87,416.29c-2.75-2.92-7.63-4.38-14.63-4.38h-58.75v127.75h59.25c12.17,0,18.25-7.16,18.25-21.5v-85.75c0-7.83-1.37-13.21-4.12-16.12ZM2305.87,416.29c-2.75-2.92-7.63-4.38-14.63-4.38h-58.75v127.75h59.25c12.17,0,18.25-7.16,18.25-21.5v-85.75c0-7.83-1.37-13.21-4.12-16.12ZM2038.95,420.25l-28.91,81.91h58.76l-29.85-81.91Z"/>
    <polygon class="cls-1" points="29.79 1085.65 29.79 1166.1 432.07 1407.47 834.35 1166.1 834.35 1085.65 432.07 1327.02 29.79 1085.65"/>
  </g>
  <g id="ITEC">
    <path class="cls-1" d="M613.93,215.61c0,17.41-2.44,34.22-7.02,50.15-.3.07-.74.04-1.29-.04-19.29-4.4-38.88-9.13-57.73-15.19-5.62-1.77-39.8-13.71-45.76-17.63.11-.96.18-1.92.18-2.92,0-13.19-10.68-23.84-23.84-23.84-2.4,0-4.69.33-6.87,1-.48-.18-54.33-111.1-67.01-170.86,9.05-1.4,18.37-2.14,27.83-2.14,21.84,0,42.8,3.88,62.2,10.94,1.29.44,2.55.92,3.84,1.44,1.63.63,3.25,1.29,4.84,2,10.35,4.44,20.22,9.72,29.49,15.89,1.29.89,2.62,1.77,3.92,2.7,1.07.74,2.11,1.48,3.14,2.22.81.59,1.63,1.18,2.4,1.81.78.55,1.52,1.11,2.22,1.7,1.15.89,2.29,1.81,3.4,2.73,1.37,1.11,2.73,2.25,4.07,3.47,1.11.96,2.22,1.96,3.33,2.96,36.04,33.19,58.65,80.76,58.65,133.61Z"/>
    <path class="cls-1" d="M559.84,344.8c-16.44,16.21-35.97,29.3-57.62,38.32-5.64-2.13-14.54-6.34-17.78-7.78-26.9-11.79-53.74-28.42-79.05-43.17,0,0,0-.04-.04-.04,1.04-2.62,1.59-5.47,1.59-8.42,0-13.23-10.72-23.95-23.91-23.95-1.96,0-3.88.22-5.73.7h-.04c-20.84-50.78-38.95-103.23-45.02-158.22.82-.34,20.78,15.3,27.02,20.55,22.07,18.48,46.87,35.99,71.52,50.85,5.32,3.22,25.65,13.94,25.8,14.19-.34,1.52-.48,3.07-.48,4.7,0,13.16,10.68,23.84,23.87,23.84,2.96,0,5.77-.56,8.39-1.55.07.03,44.46,57.47,67.49,85.52,1.29,1.61.2.25,3.99,4.46Z"/>
    <path class="cls-1" d="M417.84,396.41c-93.34-7.46-166.77-85.58-166.77-180.84,0-2.39.05-4.76.14-7.13,31.8,39.43,67.86,75.1,107.86,105.99-.22.63-.4,1.26-.59,1.89-.55,2.03-.85,4.14-.85,6.36,0,13.19,10.68,23.91,23.92,23.91,1.77,0,3.51-.19,5.17-.59l31.12,50.41Z"/>
    <path class="cls-1" d="M460.31,213.82c-1.88-1-60.43-33.12-92.21-59.73-3.44-2.85-17.59-15.15-23.84-22.21,2.33-3.84,3.66-8.32,3.66-13.12,0-12.6-9.2-23.1-21.25-25.06v-.04s.85-26.46,2-27.24c3.1-2.14,6.28-4.21,9.54-6.21,13.31-8.06,27.76-14.41,43.02-18.85.63-.18,1.26-.37,1.88-.52,2.99-.78,5.99-1.52,9.02-2.22,14.41,60.61,67.38,173.34,68.19,175.19Z"/>
    <path class="cls-1" d="M365.99,304.49c-32.53-25.24-63.91-52.55-90-84.6-3.84-4.73-21.51-28.6-22.69-32.23-.02-.06-.04-.13-.06-.2h0c5.34-34.35,20.32-65.51,42.07-90.62,1.35,1.09,6.64,5.57,7.07,6.37-2.73,4.03-5.51,10.28-5.51,15.56,0,12.83,9.54,23.47,21.88,25.17,6.77,55.74,25.61,109.22,47.24,160.55Z"/>
    <path class="cls-1" d="M488.43,388.17c-17.48,5.69-36.11,8.83-55.48,8.94l-35.37-56.7,90.85,47.75Z"/>
    <path class="cls-1" d="M314.74,77.55c-1.74,17.28.03-.34-1.78,17.63l-8.55-8.1c3.32-3.31,6.76-6.49,10.33-9.53Z"/>
    <path class="cls-1" d="M602.9,278.02c-7.84,21.38-19.59,40.87-34.37,57.6l-.34-.38c-14.75-15.22-28.75-31.41-41.91-48.04-8.28-10.54-28.68-40.51-29.75-42.14,2.14.74,70.22,24.8,106,32.9l.37.06Z"/>
  </g>
</svg>