<?xml version="1.0" encoding="UTF-8"?>
<svg xmlns="http://www.w3.org/2000/svg" viewBox="0 0 864 1422">
  <defs>
    <style>
      .cls-1 {
        fill: #fff;
      }
    </style>
  </defs>
  <g id="Brasão">
    <polygon class="cls-1" points="29.79 1085.65 29.79 1166.1 432.07 1407.47 834.35 1166.1 834.35 1085.65 432.07 1327.02 29.79 1085.65"/>
  </g>
  <g id="TI">
    <path class="cls-1" d="M499.91,792.09c.13-.99.23-1.98.31-2.98.01-.14.03-.29.04-.44.03-.29.05-.59.07-.89v-.07c.01-.07.01-.14.01-.21.04-.54.07-1.08.1-1.61,0-.17.01-.34.02-.51,0-.35,0-.7,0-1.05.01-.42.03-.83.03-1.24v-.29c-.01-1.2-.04-2.41-.11-3.62,0-.11-.01-.22-.02-.34-.06-1.07-.16-2.14-.27-3.21-.02-.13-.02-.27-.04-.41,0-.03,0-.06-.01-.09-.03-.25-.05-.51-.08-.76l.04.07,10.98-16.86-18.21-31.06-20.08,1.33.04.07c-.24-.18-.49-.35-.73-.52-.14-.1-.27-.19-.41-.29,0-.01-.02-.01-.03-.02-.16-.11-.32-.22-.49-.34-.33-.23-.66-.46-1-.69-.22-.15-.45-.3-.68-.45-.04-.02-.07-.04-.11-.07-.02-.01-.04-.02-.05-.03-.37-.24-.74-.48-1.11-.71-.34-.21-.69-.42-1.04-.63-.31-.18-.62-.37-.94-.55-.47-.27-.95-.54-1.43-.8-.19-.1-.39-.21-.59-.32-.6-.32-1.21-.63-1.82-.93-.08-.04-.16-.08-.24-.12-.29-.14-.59-.27-.89-.41-.49-.23-.99-.46-1.49-.69-.25-.11-.5-.24-.76-.35h.07l-9-18h-36l-9,18h.07c-.21.09-.41.19-.62.28-.09.04-.18.08-.27.12-.71.32-1.43.65-2.14,1-.03.01-.07.03-.1.05-.4.19-.78.4-1.18.6-.29.15-.6.3-.89.46-.06.03-.11.05-.17.08-.02.02-.05.03-.07.04-.2.11-.4.23-.61.34-.5.28-1.01.56-1.51.85-.02,0-.04.03-.07.04-.02.01-.05.03-.07.04-.03.02-.05.03-.08.05-.1.06-.2.12-.3.18-.56.34-1.12.68-1.67,1.03-.06.03-.12.07-.18.11-.07.04-.14.09-.2.13-.05.03-.09.06-.14.09-.49.32-.98.64-1.47.97-.2.14-.4.28-.61.43-.03.02-.05.04-.08.05-.02.02-.04.03-.05.04-.33.23-.65.45-.97.68l.05-.08-20.07-1.47-18.41,30.93,10.86,16.94.04-.07c-.13.99-.23,1.98-.31,2.98-.01.14-.03.29-.04.44-.03.29-.05.59-.07.89v.07c-.01.07-.01.14-.01.21-.04.54-.07,1.08-.1,1.61,0,.17-.01.34-.02.51,0,.35,0,.7,0,1.05-.01.42-.03.83-.03,1.24v.29c.01,1.2.04,2.41.11,3.62,0,.11.01.22.02.34.06,1.07.16,2.14.27,3.21.02.13.02.27.04.41,0,.03,0,.06.01.09.03.25.05.51.08.76l-.04-.07-10.98,16.86,18.21,31.06,20.08-1.33-.04-.07c.24.18.49.35.73.52.14.1.27.19.41.29,0,0,.02,0,.03.02.16.11.33.23.49.34.33.23.66.46,1,.69.22.15.45.3.68.45.04.02.07.04.11.07.02.01.04.02.06.03.36.24.73.48,1.1.71.34.21.69.42,1.04.62.31.19.62.38.94.56.47.27.95.54,1.43.8.2.11.39.21.59.32.6.32,1.21.63,1.82.93.08.04.16.08.24.12.29.14.6.27.89.41.49.23.99.46,1.49.69.25.11.5.24.76.35h-.07l9,18h36l9-18h-.07c.21-.09.41-.19.62-.28.09-.04.18-.08.26-.12.72-.32,1.44-.65,2.15-1,.03-.01.07-.03.1-.05.4-.19.78-.4,1.17-.6.3-.15.6-.3.9-.46.06-.03.12-.05.17-.08.02-.02.04-.03.07-.04.2-.11.4-.23.61-.34.5-.28,1.01-.56,1.51-.85.02-.01.04-.03.07-.04.02-.01.05-.03.07-.04.03-.02.05-.03.08-.05.1-.06.2-.12.3-.18.56-.34,1.12-.68,1.67-1.03.06-.04.12-.07.18-.11.07-.04.14-.09.2-.13.05-.03.09-.06.14-.09.49-.32.98-.64,1.47-.97.2-.14.4-.28.61-.43.03-.02.05-.04.08-.06.02-.01.04-.02.05-.03.33-.23.65-.45.97-.68l-.05.08,20.07,1.47,18.41-30.93-10.86-16.94-.04.07ZM432,805.5c-12.43,0-22.5-10.07-22.5-22.5s10.07-22.5,22.5-22.5,22.5,10.07,22.5,22.5-10.07,22.5-22.5,22.5ZM499.91,792.09c.13-.99.23-1.98.31-2.98.01-.14.03-.29.04-.44.03-.29.05-.59.07-.89v-.07c.01-.07.01-.14.01-.21.04-.54.07-1.08.1-1.61,0-.17.01-.34.02-.51,0-.35,0-.7,0-1.05.01-.42.03-.83.03-1.24v-.29c-.01-1.2-.04-2.41-.11-3.62,0-.11-.01-.22-.02-.34-.06-1.07-.16-2.14-.27-3.21-.02-.13-.02-.27-.04-.41,0-.03,0-.06-.01-.09-.03-.25-.05-.51-.08-.76l.04.07,10.98-16.86-18.21-31.06-20.08,1.33.04.07c-.24-.18-.49-.35-.73-.52-.14-.1-.27-.19-.41-.29,0-.01-.02-.01-.03-.02-.16-.11-.32-.22-.49-.34-.33-.23-.66-.46-1-.69-.22-.15-.45-.3-.68-.45-.04-.02-.07-.04-.11-.07-.02-.01-.04-.02-.05-.03-.37-.24-.74-.48-1.11-.71-.34-.21-.69-.42-1.04-.63-.31-.18-.62-.37-.94-.55-.47-.27-.95-.54-1.43-.8-.19-.1-.39-.21-.59-.32-.6-.32-1.21-.63-1.82-.93-.08-.04-.16-.08-.24-.12-.29-.14-.59-.27-.89-.41-.49-.23-.99-.46-1.49-.69-.25-.11-.5-.24-.76-.35h.07l-9-18h-36l-9,18h.07c-.21.09-.41.19-.62.28-.09.04-.18.08-.27.12-.71.32-1.43.65-2.14,1-.03.01-.07.03-.1.05-.4.19-.78.4-1.18.6-.29.15-.6.3-.89.46-.06.03-.11.05-.17.08-.02.02-.05.03-.07.04-.2.11-.4.23-.61.34-.5.28-1.01.56-1.51.85-.02,0-.04.03-.07.04-.02.01-.05.03-.07.04-.03.02-.05.03-.08.05-.1.06-.2.12-.3.18-.56.34-1.12.68-1.67,1.03-.06.03-.12.07-.18.11-.07.04-.14.09-.2.13-.05.03-.09.06-.14.09-.49.32-.98.64-1.47.97-.2.14-.4.28-.61.43-.03.02-.05.04-.08.05-.02.02-.04.03-.05.04-.33.23-.65.45-.97.68l.05-.08-20.07-1.47-18.41,30.93,10.86,16.94.04-.07c-.13.99-.23,1.98-.31,2.98-.01.14-.03.29-.04.44-.03.29-.05.59-.07.89v.07c-.01.07-.01.14-.01.21-.04.54-.07,1.08-.1,1.61,0,.17-.01.34-.02.51,0,.35,0,.7,0,1.05-.01.42-.03.83-.03,1.24v.29c.01,1.2.04,2.41.11,3.62,0,.11.01.22.02.34.06,1.07.16,2.14.27,3.21.02.13.02.27.04.41,0,.03,0,.06.01.09.03.25.05.51.08.76l-.04-.07-10.98,16.86,18.21,31.06,20.08-1.33-.04-.07c.24.18.49.35.73.52.14.1.27.19.41.29,0,0,.02,0,.03.02.16.11.33.23.49.34.33.23.66.46,1,.69.22.15.45.3.68.45.04.02.07.04.11.07.02.01.04.02.06.03.36.24.73.48,1.1.71.34.21.69.42,1.04.62.31.19.62.38.94.56.47.27.95.54,1.43.8.2.11.39.21.59.32.6.32,1.21.63,1.82.93.08.04.16.08.24.12.29.14.6.27.89.41.49.23.99.46,1.49.69.25.11.5.24.76.35h-.07l9,18h36l9-18h-.07c.21-.09.41-.19.62-.28.09-.04.18-.08.26-.12.72-.32,1.44-.65,2.15-1,.03-.01.07-.03.1-.05.4-.19.78-.4,1.17-.6.3-.15.6-.3.9-.46.06-.03.12-.05.17-.08.02-.02.04-.03.07-.04.2-.11.4-.23.61-.34.5-.28,1.01-.56,1.51-.85.02-.01.04-.03.07-.04.02-.01.05-.03.07-.04.03-.02.05-.03.08-.05.1-.06.2-.12.3-.18.56-.34,1.12-.68,1.67-1.03.06-.04.12-.07.18-.11.07-.04.14-.09.2-.13.05-.03.09-.06.14-.09.49-.32.98-.64,1.47-.97.2-.14.4-.28.61-.43.03-.02.05-.04.08-.06.02-.01.04-.02.05-.03.33-.23.65-.45.97-.68l-.05.08,20.07,1.47,18.41-30.93-10.86-16.94-.04.07ZM432,805.5c-12.43,0-22.5-10.07-22.5-22.5s10.07-22.5,22.5-22.5,22.5,10.07,22.5,22.5-10.07,22.5-22.5,22.5ZM432,590.44L29.72,349.07v643.65l402.28,241.37,402.28-241.37V349.07l-402.28,241.37ZM495,1125h-126l126-54v54ZM495,1053l-126,54v-27l126-54v27ZM369,1062v-54h126l-126,54ZM558,783c-2.09,17.18-6.7,29.87-9,36-23.61,63.05-49.85,94.11-54,144-1.03,12.45-.39,22.4,0,27h-126c.39-4.6,1.03-14.55,0-27-4.15-49.89-30.39-80.95-54-144-2.3-6.13-6.91-18.82-9-36-1.83-15.01-1.02-27.64,0-36,1.91-15.7,6.09-29.2,9-36,16.69-39.03,67.53-50.76,81-54,32.83-7.9,60.05-2.9,72,0,13.88,3.37,63.61,15.46,81,54,6.33,14.04,8.5,31.84,9,36,1.02,8.36,1.83,20.99,0,36ZM510.99,757.58l-18.21-31.06-20.08,1.33.04.07c-.24-.18-.49-.35-.73-.52-.14-.1-.27-.19-.41-.29,0-.01-.02-.01-.03-.02-.16-.11-.32-.22-.49-.34-.33-.23-.66-.46-1-.69-.22-.15-.45-.3-.68-.45-.04-.02-.07-.04-.11-.07-.02-.01-.04-.02-.05-.03-.37-.24-.74-.48-1.11-.71-.34-.21-.69-.42-1.04-.63-.31-.18-.62-.37-.94-.55-.47-.27-.95-.54-1.43-.8-.19-.1-.39-.21-.59-.32-.6-.32-1.21-.63-1.82-.93-.08-.04-.16-.08-.24-.12-.29-.14-.59-.27-.89-.41-.49-.23-.99-.46-1.49-.69-.25-.11-.5-.24-.76-.35h.07l-9-18h-36l-9,18h.07c-.21.09-.41.19-.62.28-.09.04-.18.08-.27.12-.71.32-1.43.65-2.14,1-.03.01-.07.03-.1.05-.4.19-.78.4-1.18.6-.29.15-.6.3-.89.46-.06.03-.11.05-.17.08-.02.02-.05.03-.07.04-.2.11-.4.23-.61.34-.5.28-1.01.56-1.51.85-.02,0-.04.03-.07.04-.02.01-.05.03-.07.04-.03.02-.05.03-.08.05-.1.06-.2.12-.3.18-.56.34-1.12.68-1.67,1.03-.06.03-.12.07-.18.11-.07.04-.14.09-.2.13-.05.03-.09.06-.14.09-.49.32-.98.64-1.47.97-.2.14-.4.28-.61.43-.03.02-.05.04-.08.05-.02.02-.04.03-.05.04-.33.23-.65.45-.97.68l.05-.08-20.07-1.47-18.41,30.93,10.86,16.94.04-.07c-.13.99-.23,1.98-.31,2.98-.01.14-.03.29-.04.44-.03.29-.05.59-.07.89v.07c-.01.07-.01.14-.01.21-.04.54-.07,1.08-.1,1.61,0,.17-.01.34-.02.51,0,.35,0,.7,0,1.05-.01.42-.03.83-.03,1.24v.29c.01,1.2.04,2.41.11,3.62,0,.11.01.22.02.34.06,1.07.16,2.14.27,3.21.02.13.02.27.04.41,0,.03,0,.06.01.09.03.25.05.51.08.76l-.04-.07-10.98,16.86,18.21,31.06,20.08-1.33-.04-.07c.24.18.49.35.73.52.14.1.27.19.41.29,0,0,.02,0,.03.02.16.11.33.23.49.34.33.23.66.46,1,.69.22.15.45.3.68.45.04.02.07.04.11.07.02.01.04.02.06.03.36.24.73.48,1.1.71.34.21.69.42,1.04.62.31.19.62.38.94.56.47.27.95.54,1.43.8.2.11.39.21.59.32.6.32,1.21.63,1.82.93.08.04.16.08.24.12.29.14.6.27.89.41.49.23.99.46,1.49.69.25.11.5.24.76.35h-.07l9,18h36l9-18h-.07c.21-.09.41-.19.62-.28.09-.04.18-.08.26-.12.72-.32,1.44-.65,2.15-1,.03-.01.07-.03.1-.05.4-.19.78-.4,1.17-.6.3-.15.6-.3.9-.46.06-.03.12-.05.17-.08.02-.02.04-.03.07-.04.2-.11.4-.23.61-.34.5-.28,1.01-.56,1.51-.85.02-.01.04-.03.07-.04.02-.01.05-.03.07-.04.03-.02.05-.03.08-.05.1-.06.2-.12.3-.18.56-.34,1.12-.68,1.67-1.03.06-.04.12-.07.18-.11.07-.04.14-.09.2-.13.05-.03.09-.06.14-.09.49-.32.98-.64,1.47-.97.2-.14.4-.28.61-.43.03-.02.05-.04.08-.06.02-.01.04-.02.05-.03.33-.23.65-.45.97-.68l-.05.08,20.07,1.47,18.41-30.93-10.86-16.94-.04.07c.13-.99.23-1.98.31-2.98.01-.14.03-.29.04-.44.03-.29.05-.59.07-.89v-.07c.01-.07.01-.14.01-.21.04-.54.07-1.08.1-1.61,0-.17.01-.34.02-.51,0-.35,0-.7,0-1.05.01-.42.03-.83.03-1.24v-.29c-.01-1.2-.04-2.41-.11-3.62,0-.11-.01-.22-.02-.34-.06-1.07-.16-2.14-.27-3.21-.02-.13-.02-.27-.04-.41,0-.03,0-.06-.01-.09-.03-.25-.05-.51-.08-.76l.04.07,10.98-16.86ZM432,805.5c-12.43,0-22.5-10.07-22.5-22.5s10.07-22.5,22.5-22.5,22.5,10.07,22.5,22.5-10.07,22.5-22.5,22.5Z"/>
  </g>
  <g id="ITEC">
    <path class="cls-1" d="M613.5,215.61c0,17.41-2.44,34.22-7.02,50.15-.3.07-.74.04-1.29-.04-19.29-4.4-38.88-9.13-57.73-15.19-5.62-1.77-39.8-13.71-45.76-17.63.11-.96.18-1.92.18-2.92,0-13.19-10.68-23.84-23.84-23.84-2.4,0-4.69.33-6.87,1-.48-.18-54.33-111.1-67.01-170.86,9.05-1.4,18.37-2.14,27.83-2.14,21.84,0,42.8,3.88,62.2,10.94,1.29.44,2.55.92,3.84,1.44,1.63.63,3.25,1.29,4.84,2,10.35,4.44,20.22,9.72,29.49,15.89,1.29.89,2.62,1.77,3.92,2.7,1.07.74,2.11,1.48,3.14,2.22.81.59,1.63,1.18,2.4,1.81.78.55,1.52,1.11,2.22,1.7,1.15.89,2.29,1.81,3.4,2.73,1.37,1.11,2.73,2.25,4.07,3.47,1.11.96,2.22,1.96,3.33,2.96,36.04,33.19,58.65,80.76,58.65,133.61Z"/>
    <path class="cls-1" d="M560.88,345.96c-16.19,15.93-35.33,28.87-56.58,37.88h-.04c-5.25-1.7-16.15-6.87-19.81-8.5-26.91-11.79-53.74-28.42-79.06-43.17,0,0,0-.04-.04-.04,1.03-2.62,1.59-5.47,1.59-8.43,0-13.23-10.72-23.95-23.91-23.95-1.96,0-3.88.22-5.73.7h-.04c-20.84-50.78-38.95-103.23-45.02-158.22.81-.33,20.77,15.3,27.02,20.55,22.06,18.48,46.86,36,71.52,50.86,5.32,3.22,25.65,13.93,25.8,14.19-.33,1.52-.48,3.07-.48,4.69,0,13.16,10.68,23.84,23.88,23.84,2.96,0,5.77-.55,8.39-1.55.07.04,44.46,57.47,67.49,85.52,1.4,1.74,0,0,5.03,5.62Z"/>
    <path class="cls-1" d="M417.95,396.59c-92.73-7.13-165.91-83.86-167.43-178.07-.04-.04-.04-.07,0-.15-.04-.04-.04-.07,0-.11.04-3.36.18-6.73.44-10.13,31.86,39.55,68,75.32,108.11,106.29-.22.63-.41,1.26-.59,1.88-.55,2.03-.85,4.14-.85,6.36,0,13.19,10.68,23.91,23.91,23.91,1.77,0,3.51-.18,5.17-.59l31.23,50.6Z"/>
    <path class="cls-1" d="M460.31,213.82c-1.88-1-60.43-33.12-92.21-59.73-3.44-2.85-17.59-15.15-23.84-22.21,2.33-3.84,3.66-8.32,3.66-13.12,0-12.6-9.2-23.1-21.25-25.06v-.04s.85-26.46,2-27.24c3.1-2.14,6.28-4.21,9.54-6.21,13.31-8.06,27.76-14.41,43.02-18.85.63-.18,1.26-.37,1.88-.52,2.99-.78,5.99-1.52,9.02-2.22,14.41,60.61,67.38,173.34,68.19,175.19Z"/>
    <path class="cls-1" d="M365.99,304.49c-32.52-25.24-63.9-52.56-90-84.6-3.84-4.73-21.51-28.61-22.69-32.23-.15-.48-.26-1.03-.33-1.66v-.07c-1.11-9.76,8.28-33.71,11.86-42.17,7.06-16.63,17.22-34.56,30.16-47.2l.04.04c.37.26,6.88,5.73,7.36,6.61-2.73,4.03-5.51,10.28-5.51,15.56,0,12.82,9.54,23.47,21.88,25.17,6.76,55.73,25.61,109.21,47.23,160.55Z"/>
    <path class="cls-1" d="M602.53,277.96c-7.76,21.21-19.37,40.58-34,57.25-.11.04-.22.04-.33.04-14.75-15.23-28.75-31.42-41.91-48.05-8.28-10.53-28.68-40.51-29.75-42.13,2.14.74,70.22,24.8,106,32.89Z"/>
    <path class="cls-1" d="M488.43,388.17c-17.48,5.69-36.11,8.83-55.48,8.94l-35.37-56.7,90.85,47.75Z"/>
    <path class="cls-1" d="M312.96,95.18l-8.81-8.34-.04-.04.92-.89,3.81-3.66c1.4-1.26,4.43-3.93,5.95-5.23l-1.83,18.15Z"/>
  </g>
</svg>